<mxfile host="app.diagrams.net" agent="Mozilla/5.0 (Windows NT 10.0; Win64; x64) AppleWebKit/537.36 (KHTML, like Gecko) Chrome/138.0.0.0 Whale/4.33.325.17 Safari/537.36" version="28.2.0" pages="3">
  <diagram name="GatewayController" id="RYJhBksys2bXN5g6pBrL">
    <mxGraphModel dx="1735" dy="2697" grid="1" gridSize="10" guides="1" tooltips="1" connect="1" arrows="1" fold="1" page="1" pageScale="1" pageWidth="827" pageHeight="1169" math="0" shadow="0">
      <root>
        <mxCell id="0" />
        <mxCell id="1" parent="0" />
        <mxCell id="VUm8Ec2M1YMUWV_NvpTi-25" value="GatewayController" style="text;html=1;align=center;verticalAlign=middle;resizable=0;points=[];autosize=1;strokeColor=none;fillColor=none;fontStyle=1;fontSize=14;" vertex="1" parent="1">
          <mxGeometry x="-730" y="-1120" width="140" height="30" as="geometry" />
        </mxCell>
        <mxCell id="HKb_NUVMWkxJ74cnmcRa-5" style="edgeStyle=orthogonalEdgeStyle;rounded=0;orthogonalLoop=1;jettySize=auto;html=1;exitX=1;exitY=0;exitDx=0;exitDy=0;entryX=0;entryY=0.5;entryDx=0;entryDy=0;dashed=1;endArrow=open;endFill=0;endSize=14;" edge="1" parent="1" source="HKb_NUVMWkxJ74cnmcRa-6" target="HKb_NUVMWkxJ74cnmcRa-79">
          <mxGeometry relative="1" as="geometry">
            <Array as="points">
              <mxPoint x="-220" y="-391" />
            </Array>
          </mxGeometry>
        </mxCell>
        <mxCell id="HKb_NUVMWkxJ74cnmcRa-6" value="GatewayController" style="swimlane;fontStyle=1;align=center;verticalAlign=top;childLayout=stackLayout;horizontal=1;startSize=28.91455078125;horizontalStack=0;resizeParent=1;resizeParentMax=0;resizeLast=0;collapsible=0;marginBottom=0;fontSize=14;" vertex="1" parent="1">
          <mxGeometry x="-654" y="-277" width="434" height="314.91455078125" as="geometry" />
        </mxCell>
        <mxCell id="HKb_NUVMWkxJ74cnmcRa-7" value="-ICommandQueue commandQueue" style="text;strokeColor=none;fillColor=none;align=left;verticalAlign=top;spacingLeft=4;spacingRight=4;overflow=hidden;rotatable=0;points=[[0,0.5],[1,0.5]];portConstraint=eastwest;fontSize=14;" vertex="1" parent="HKb_NUVMWkxJ74cnmcRa-6">
          <mxGeometry y="28.91455078125" width="434" height="26" as="geometry" />
        </mxCell>
        <mxCell id="HKb_NUVMWkxJ74cnmcRa-8" value="-IDeviceControl deviceControl" style="text;strokeColor=none;fillColor=none;align=left;verticalAlign=top;spacingLeft=4;spacingRight=4;overflow=hidden;rotatable=0;points=[[0,0.5],[1,0.5]];portConstraint=eastwest;fontSize=14;" vertex="1" parent="HKb_NUVMWkxJ74cnmcRa-6">
          <mxGeometry y="54.91455078125" width="434" height="26" as="geometry" />
        </mxCell>
        <mxCell id="HKb_NUVMWkxJ74cnmcRa-9" value="-IMQTTBroker mqttBroker" style="text;strokeColor=none;fillColor=none;align=left;verticalAlign=top;spacingLeft=4;spacingRight=4;overflow=hidden;rotatable=0;points=[[0,0.5],[1,0.5]];portConstraint=eastwest;fontSize=14;" vertex="1" parent="HKb_NUVMWkxJ74cnmcRa-6">
          <mxGeometry y="80.91455078125" width="434" height="26" as="geometry" />
        </mxCell>
        <mxCell id="HKb_NUVMWkxJ74cnmcRa-10" value="-IDeviceMonitor deviceMonitor" style="text;strokeColor=none;fillColor=none;align=left;verticalAlign=top;spacingLeft=4;spacingRight=4;overflow=hidden;rotatable=0;points=[[0,0.5],[1,0.5]];portConstraint=eastwest;fontSize=14;" vertex="1" parent="HKb_NUVMWkxJ74cnmcRa-6">
          <mxGeometry y="106.91455078125" width="434" height="26" as="geometry" />
        </mxCell>
        <mxCell id="HKb_NUVMWkxJ74cnmcRa-11" value="-ILocalStorage localStorage" style="text;strokeColor=none;fillColor=none;align=left;verticalAlign=top;spacingLeft=4;spacingRight=4;overflow=hidden;rotatable=0;points=[[0,0.5],[1,0.5]];portConstraint=eastwest;fontSize=14;" vertex="1" parent="HKb_NUVMWkxJ74cnmcRa-6">
          <mxGeometry y="132.91455078125" width="434" height="26" as="geometry" />
        </mxCell>
        <mxCell id="HKb_NUVMWkxJ74cnmcRa-12" value="-Thread commandProcessorThread" style="text;strokeColor=none;fillColor=none;align=left;verticalAlign=top;spacingLeft=4;spacingRight=4;overflow=hidden;rotatable=0;points=[[0,0.5],[1,0.5]];portConstraint=eastwest;fontSize=14;" vertex="1" parent="HKb_NUVMWkxJ74cnmcRa-6">
          <mxGeometry y="158.91455078125" width="434" height="26" as="geometry" />
        </mxCell>
        <mxCell id="HKb_NUVMWkxJ74cnmcRa-13" style="line;strokeWidth=1;fillColor=none;align=left;verticalAlign=middle;spacingTop=-1;spacingLeft=3;spacingRight=3;rotatable=0;labelPosition=right;points=[];portConstraint=eastwest;strokeColor=inherit;fontSize=14;" vertex="1" parent="HKb_NUVMWkxJ74cnmcRa-6">
          <mxGeometry y="184.91455078125" width="434" height="26" as="geometry" />
        </mxCell>
        <mxCell id="HKb_NUVMWkxJ74cnmcRa-16" value="+processCloudCommand(command: String, payload: String) : : void" style="text;strokeColor=none;fillColor=none;align=left;verticalAlign=top;spacingLeft=4;spacingRight=4;overflow=hidden;rotatable=0;points=[[0,0.5],[1,0.5]];portConstraint=eastwest;fontSize=14;" vertex="1" parent="HKb_NUVMWkxJ74cnmcRa-6">
          <mxGeometry y="210.91455078125" width="434" height="26" as="geometry" />
        </mxCell>
        <mxCell id="HKb_NUVMWkxJ74cnmcRa-17" value="+onDeviceStatusChanged(deviceId: String, status: String) : : void" style="text;strokeColor=none;fillColor=none;align=left;verticalAlign=top;spacingLeft=4;spacingRight=4;overflow=hidden;rotatable=0;points=[[0,0.5],[1,0.5]];portConstraint=eastwest;fontSize=14;" vertex="1" parent="HKb_NUVMWkxJ74cnmcRa-6">
          <mxGeometry y="236.91455078125" width="434" height="26" as="geometry" />
        </mxCell>
        <mxCell id="HKb_NUVMWkxJ74cnmcRa-18" value="+onNetworkConnected() : : void" style="text;strokeColor=none;fillColor=none;align=left;verticalAlign=top;spacingLeft=4;spacingRight=4;overflow=hidden;rotatable=0;points=[[0,0.5],[1,0.5]];portConstraint=eastwest;fontSize=14;" vertex="1" parent="HKb_NUVMWkxJ74cnmcRa-6">
          <mxGeometry y="262.91455078125" width="434" height="26" as="geometry" />
        </mxCell>
        <mxCell id="HKb_NUVMWkxJ74cnmcRa-19" value="+onNetworkDisconnected() : : void" style="text;strokeColor=none;fillColor=none;align=left;verticalAlign=top;spacingLeft=4;spacingRight=4;overflow=hidden;rotatable=0;points=[[0,0.5],[1,0.5]];portConstraint=eastwest;fontSize=14;" vertex="1" parent="HKb_NUVMWkxJ74cnmcRa-6">
          <mxGeometry y="288.91455078125" width="434" height="26" as="geometry" />
        </mxCell>
        <mxCell id="HKb_NUVMWkxJ74cnmcRa-20" value="&lt;&lt;interface&gt;&gt;&#xa;IGatewayService" style="swimlane;fontStyle=1;align=center;verticalAlign=top;childLayout=stackLayout;horizontal=1;startSize=70.98722076416016;horizontalStack=0;resizeParent=1;resizeParentMax=0;resizeLast=0;collapsible=0;marginBottom=0;fontSize=14;" vertex="1" parent="1">
          <mxGeometry x="-657" y="-650" width="437" height="159.99722076416015" as="geometry" />
        </mxCell>
        <mxCell id="HKb_NUVMWkxJ74cnmcRa-21" style="line;strokeWidth=1;fillColor=none;align=left;verticalAlign=middle;spacingTop=-1;spacingLeft=3;spacingRight=3;rotatable=0;labelPosition=right;points=[];portConstraint=eastwest;strokeColor=inherit;fontSize=14;" vertex="1" parent="HKb_NUVMWkxJ74cnmcRa-20">
          <mxGeometry y="70.98722076416016" width="437" height="26" as="geometry" />
        </mxCell>
        <mxCell id="HKb_NUVMWkxJ74cnmcRa-22" value="+processCloudCommand(command: String, payload: String) : : void&#xa;" style="text;strokeColor=none;fillColor=none;align=left;verticalAlign=top;spacingLeft=4;spacingRight=4;overflow=hidden;rotatable=0;points=[[0,0.5],[1,0.5]];portConstraint=eastwest;fontSize=14;" vertex="1" parent="HKb_NUVMWkxJ74cnmcRa-20">
          <mxGeometry y="96.98722076416016" width="437" height="63.01" as="geometry" />
        </mxCell>
        <mxCell id="HKb_NUVMWkxJ74cnmcRa-23" value="&lt;&lt;interface&gt;&gt;&#xa;IDeviceControl" style="swimlane;fontStyle=1;align=center;verticalAlign=top;childLayout=stackLayout;horizontal=1;startSize=50.98721858433315;horizontalStack=0;resizeParent=1;resizeParentMax=0;resizeLast=0;collapsible=0;marginBottom=0;fontSize=14;" vertex="1" parent="1">
          <mxGeometry x="-150" y="-280" width="340" height="154.98721858433316" as="geometry" />
        </mxCell>
        <mxCell id="HKb_NUVMWkxJ74cnmcRa-24" style="line;strokeWidth=1;fillColor=none;align=left;verticalAlign=middle;spacingTop=-1;spacingLeft=3;spacingRight=3;rotatable=0;labelPosition=right;points=[];portConstraint=eastwest;strokeColor=inherit;fontSize=14;" vertex="1" parent="HKb_NUVMWkxJ74cnmcRa-23">
          <mxGeometry y="50.98721858433315" width="340" height="26" as="geometry" />
        </mxCell>
        <mxCell id="HKb_NUVMWkxJ74cnmcRa-25" value="+turnOn(deviceId: String) : : void" style="text;strokeColor=none;fillColor=none;align=left;verticalAlign=top;spacingLeft=4;spacingRight=4;overflow=hidden;rotatable=0;points=[[0,0.5],[1,0.5]];portConstraint=eastwest;fontSize=14;" vertex="1" parent="HKb_NUVMWkxJ74cnmcRa-23">
          <mxGeometry y="76.98721858433315" width="340" height="26" as="geometry" />
        </mxCell>
        <mxCell id="HKb_NUVMWkxJ74cnmcRa-26" value="+turnOff(deviceId: String) : : void" style="text;strokeColor=none;fillColor=none;align=left;verticalAlign=top;spacingLeft=4;spacingRight=4;overflow=hidden;rotatable=0;points=[[0,0.5],[1,0.5]];portConstraint=eastwest;fontSize=14;" vertex="1" parent="HKb_NUVMWkxJ74cnmcRa-23">
          <mxGeometry y="102.98721858433315" width="340" height="26" as="geometry" />
        </mxCell>
        <mxCell id="HKb_NUVMWkxJ74cnmcRa-27" value="+getDeviceStatus(deviceId: String) : : String" style="text;strokeColor=none;fillColor=none;align=left;verticalAlign=top;spacingLeft=4;spacingRight=4;overflow=hidden;rotatable=0;points=[[0,0.5],[1,0.5]];portConstraint=eastwest;fontSize=14;" vertex="1" parent="HKb_NUVMWkxJ74cnmcRa-23">
          <mxGeometry y="128.98721858433316" width="340" height="26" as="geometry" />
        </mxCell>
        <mxCell id="HKb_NUVMWkxJ74cnmcRa-28" value="HomeAssistantAPI" style="swimlane;fontStyle=1;align=center;verticalAlign=top;childLayout=stackLayout;horizontal=1;startSize=40.56412615094866;horizontalStack=0;resizeParent=1;resizeParentMax=0;resizeLast=0;collapsible=0;marginBottom=0;fontSize=14;" vertex="1" parent="1">
          <mxGeometry x="260" y="-620" width="238" height="48.56412615094866" as="geometry" />
        </mxCell>
        <mxCell id="HKb_NUVMWkxJ74cnmcRa-29" style="line;strokeWidth=1;fillColor=none;align=left;verticalAlign=middle;spacingTop=-1;spacingLeft=3;spacingRight=3;rotatable=0;labelPosition=right;points=[];portConstraint=eastwest;strokeColor=inherit;fontSize=14;" vertex="1" parent="HKb_NUVMWkxJ74cnmcRa-28">
          <mxGeometry y="40.56412615094866" width="238" height="8" as="geometry" />
        </mxCell>
        <mxCell id="HKb_NUVMWkxJ74cnmcRa-30" value="&lt;&lt;interface&gt;&gt;&#xa;ICommandQueue" style="swimlane;fontStyle=1;align=center;verticalAlign=top;childLayout=stackLayout;horizontal=1;startSize=56.987214660644526;horizontalStack=0;resizeParent=1;resizeParentMax=0;resizeLast=0;collapsible=0;marginBottom=0;fontSize=14;" vertex="1" parent="1">
          <mxGeometry x="-196" y="200" width="306" height="160.98721466064453" as="geometry" />
        </mxCell>
        <mxCell id="HKb_NUVMWkxJ74cnmcRa-31" style="line;strokeWidth=1;fillColor=none;align=left;verticalAlign=middle;spacingTop=-1;spacingLeft=3;spacingRight=3;rotatable=0;labelPosition=right;points=[];portConstraint=eastwest;strokeColor=inherit;fontSize=14;" vertex="1" parent="HKb_NUVMWkxJ74cnmcRa-30">
          <mxGeometry y="56.987214660644526" width="306" height="26" as="geometry" />
        </mxCell>
        <mxCell id="HKb_NUVMWkxJ74cnmcRa-32" value="+addCommand(command: ICommand) : : void" style="text;strokeColor=none;fillColor=none;align=left;verticalAlign=top;spacingLeft=4;spacingRight=4;overflow=hidden;rotatable=0;points=[[0,0.5],[1,0.5]];portConstraint=eastwest;fontSize=14;" vertex="1" parent="HKb_NUVMWkxJ74cnmcRa-30">
          <mxGeometry y="82.98721466064453" width="306" height="26" as="geometry" />
        </mxCell>
        <mxCell id="HKb_NUVMWkxJ74cnmcRa-33" value="+pollCommand() : : ICommand" style="text;strokeColor=none;fillColor=none;align=left;verticalAlign=top;spacingLeft=4;spacingRight=4;overflow=hidden;rotatable=0;points=[[0,0.5],[1,0.5]];portConstraint=eastwest;fontSize=14;" vertex="1" parent="HKb_NUVMWkxJ74cnmcRa-30">
          <mxGeometry y="108.98721466064453" width="306" height="26" as="geometry" />
        </mxCell>
        <mxCell id="HKb_NUVMWkxJ74cnmcRa-34" value="+isEmpty() : : boolean" style="text;strokeColor=none;fillColor=none;align=left;verticalAlign=top;spacingLeft=4;spacingRight=4;overflow=hidden;rotatable=0;points=[[0,0.5],[1,0.5]];portConstraint=eastwest;fontSize=14;" vertex="1" parent="HKb_NUVMWkxJ74cnmcRa-30">
          <mxGeometry y="134.98721466064453" width="306" height="26" as="geometry" />
        </mxCell>
        <mxCell id="HKb_NUVMWkxJ74cnmcRa-35" value="&lt;&lt;class&gt;&gt;&#xa;PersistentCommandQueue" style="swimlane;fontStyle=1;align=center;verticalAlign=top;childLayout=stackLayout;horizontal=1;startSize=40;horizontalStack=0;resizeParent=1;resizeParentMax=0;resizeLast=0;collapsible=0;marginBottom=0;fontSize=14;" vertex="1" parent="1">
          <mxGeometry x="-700" y="200" width="300" height="274" as="geometry" />
        </mxCell>
        <mxCell id="HKb_NUVMWkxJ74cnmcRa-36" value="-ILocalStorage localStorage" style="text;strokeColor=none;fillColor=none;align=left;verticalAlign=top;spacingLeft=4;spacingRight=4;overflow=hidden;rotatable=0;points=[[0,0.5],[1,0.5]];portConstraint=eastwest;fontSize=14;" vertex="1" parent="HKb_NUVMWkxJ74cnmcRa-35">
          <mxGeometry y="40" width="300" height="26" as="geometry" />
        </mxCell>
        <mxCell id="HKb_NUVMWkxJ74cnmcRa-37" value="-Queue internalQueue" style="text;strokeColor=none;fillColor=none;align=left;verticalAlign=top;spacingLeft=4;spacingRight=4;overflow=hidden;rotatable=0;points=[[0,0.5],[1,0.5]];portConstraint=eastwest;fontSize=14;" vertex="1" parent="HKb_NUVMWkxJ74cnmcRa-35">
          <mxGeometry y="66" width="300" height="26" as="geometry" />
        </mxCell>
        <mxCell id="HKb_NUVMWkxJ74cnmcRa-38" value="-String storageKey" style="text;strokeColor=none;fillColor=none;align=left;verticalAlign=top;spacingLeft=4;spacingRight=4;overflow=hidden;rotatable=0;points=[[0,0.5],[1,0.5]];portConstraint=eastwest;fontSize=14;" vertex="1" parent="HKb_NUVMWkxJ74cnmcRa-35">
          <mxGeometry y="92" width="300" height="26" as="geometry" />
        </mxCell>
        <mxCell id="HKb_NUVMWkxJ74cnmcRa-39" style="line;strokeWidth=1;fillColor=none;align=left;verticalAlign=middle;spacingTop=-1;spacingLeft=3;spacingRight=3;rotatable=0;labelPosition=right;points=[];portConstraint=eastwest;strokeColor=inherit;fontSize=14;" vertex="1" parent="HKb_NUVMWkxJ74cnmcRa-35">
          <mxGeometry y="118" width="300" height="26" as="geometry" />
        </mxCell>
        <mxCell id="HKb_NUVMWkxJ74cnmcRa-40" value="+addCommand(command: ICommand) : : void" style="text;strokeColor=none;fillColor=none;align=left;verticalAlign=top;spacingLeft=4;spacingRight=4;overflow=hidden;rotatable=0;points=[[0,0.5],[1,0.5]];portConstraint=eastwest;fontSize=14;" vertex="1" parent="HKb_NUVMWkxJ74cnmcRa-35">
          <mxGeometry y="144" width="300" height="26" as="geometry" />
        </mxCell>
        <mxCell id="HKb_NUVMWkxJ74cnmcRa-41" value="+pollCommand() : : ICommand" style="text;strokeColor=none;fillColor=none;align=left;verticalAlign=top;spacingLeft=4;spacingRight=4;overflow=hidden;rotatable=0;points=[[0,0.5],[1,0.5]];portConstraint=eastwest;fontSize=14;" vertex="1" parent="HKb_NUVMWkxJ74cnmcRa-35">
          <mxGeometry y="170" width="300" height="26" as="geometry" />
        </mxCell>
        <mxCell id="HKb_NUVMWkxJ74cnmcRa-42" value="+isEmpty() : : boolean" style="text;strokeColor=none;fillColor=none;align=left;verticalAlign=top;spacingLeft=4;spacingRight=4;overflow=hidden;rotatable=0;points=[[0,0.5],[1,0.5]];portConstraint=eastwest;fontSize=14;" vertex="1" parent="HKb_NUVMWkxJ74cnmcRa-35">
          <mxGeometry y="196" width="300" height="26" as="geometry" />
        </mxCell>
        <mxCell id="HKb_NUVMWkxJ74cnmcRa-43" value="-saveQueue() : : void" style="text;strokeColor=none;fillColor=none;align=left;verticalAlign=top;spacingLeft=4;spacingRight=4;overflow=hidden;rotatable=0;points=[[0,0.5],[1,0.5]];portConstraint=eastwest;fontSize=14;" vertex="1" parent="HKb_NUVMWkxJ74cnmcRa-35">
          <mxGeometry y="222" width="300" height="26" as="geometry" />
        </mxCell>
        <mxCell id="HKb_NUVMWkxJ74cnmcRa-44" value="-loadQueue() : : void" style="text;strokeColor=none;fillColor=none;align=left;verticalAlign=top;spacingLeft=4;spacingRight=4;overflow=hidden;rotatable=0;points=[[0,0.5],[1,0.5]];portConstraint=eastwest;fontSize=14;" vertex="1" parent="HKb_NUVMWkxJ74cnmcRa-35">
          <mxGeometry y="248" width="300" height="26" as="geometry" />
        </mxCell>
        <mxCell id="HKb_NUVMWkxJ74cnmcRa-45" value="&lt;&lt;interface&gt;&gt;&#xa;ICommand" style="swimlane;fontStyle=1;align=center;verticalAlign=top;childLayout=stackLayout;horizontal=1;startSize=56.987214660644526;horizontalStack=0;resizeParent=1;resizeParentMax=0;resizeLast=0;collapsible=0;marginBottom=0;fontSize=14;" vertex="1" parent="1">
          <mxGeometry x="220" y="200" width="300" height="160.98721466064453" as="geometry" />
        </mxCell>
        <mxCell id="HKb_NUVMWkxJ74cnmcRa-46" style="line;strokeWidth=1;fillColor=none;align=left;verticalAlign=middle;spacingTop=-1;spacingLeft=3;spacingRight=3;rotatable=0;labelPosition=right;points=[];portConstraint=eastwest;strokeColor=inherit;fontSize=14;" vertex="1" parent="HKb_NUVMWkxJ74cnmcRa-45">
          <mxGeometry y="56.987214660644526" width="300" height="26" as="geometry" />
        </mxCell>
        <mxCell id="HKb_NUVMWkxJ74cnmcRa-47" value="+execute(context: GatewayController) : : void" style="text;strokeColor=none;fillColor=none;align=left;verticalAlign=top;spacingLeft=4;spacingRight=4;overflow=hidden;rotatable=0;points=[[0,0.5],[1,0.5]];portConstraint=eastwest;fontSize=14;" vertex="1" parent="HKb_NUVMWkxJ74cnmcRa-45">
          <mxGeometry y="82.98721466064453" width="300" height="26" as="geometry" />
        </mxCell>
        <mxCell id="HKb_NUVMWkxJ74cnmcRa-48" value="+serialize() : : String" style="text;strokeColor=none;fillColor=none;align=left;verticalAlign=top;spacingLeft=4;spacingRight=4;overflow=hidden;rotatable=0;points=[[0,0.5],[1,0.5]];portConstraint=eastwest;fontSize=14;" vertex="1" parent="HKb_NUVMWkxJ74cnmcRa-45">
          <mxGeometry y="108.98721466064453" width="300" height="26" as="geometry" />
        </mxCell>
        <mxCell id="HKb_NUVMWkxJ74cnmcRa-49" value="+deserialize(data: String) : : ICommand" style="text;strokeColor=none;fillColor=none;align=left;verticalAlign=top;spacingLeft=4;spacingRight=4;overflow=hidden;rotatable=0;points=[[0,0.5],[1,0.5]];portConstraint=eastwest;fontSize=14;" vertex="1" parent="HKb_NUVMWkxJ74cnmcRa-45">
          <mxGeometry y="134.98721466064453" width="300" height="26" as="geometry" />
        </mxCell>
        <mxCell id="HKb_NUVMWkxJ74cnmcRa-50" value="DeviceControlCommand" style="swimlane;fontStyle=1;align=center;verticalAlign=top;childLayout=stackLayout;horizontal=1;startSize=33.13433183942522;horizontalStack=0;resizeParent=1;resizeParentMax=0;resizeLast=0;collapsible=0;marginBottom=0;fontSize=14;" vertex="1" parent="1">
          <mxGeometry x="224" y="-290" width="300" height="215.13433183942522" as="geometry" />
        </mxCell>
        <mxCell id="HKb_NUVMWkxJ74cnmcRa-51" value="-String deviceId" style="text;strokeColor=none;fillColor=none;align=left;verticalAlign=top;spacingLeft=4;spacingRight=4;overflow=hidden;rotatable=0;points=[[0,0.5],[1,0.5]];portConstraint=eastwest;fontSize=14;" vertex="1" parent="HKb_NUVMWkxJ74cnmcRa-50">
          <mxGeometry y="33.13433183942522" width="300" height="26" as="geometry" />
        </mxCell>
        <mxCell id="HKb_NUVMWkxJ74cnmcRa-52" value="-String action" style="text;strokeColor=none;fillColor=none;align=left;verticalAlign=top;spacingLeft=4;spacingRight=4;overflow=hidden;rotatable=0;points=[[0,0.5],[1,0.5]];portConstraint=eastwest;fontSize=14;" vertex="1" parent="HKb_NUVMWkxJ74cnmcRa-50">
          <mxGeometry y="59.13433183942522" width="300" height="26" as="geometry" />
        </mxCell>
        <mxCell id="HKb_NUVMWkxJ74cnmcRa-53" value="-String payload" style="text;strokeColor=none;fillColor=none;align=left;verticalAlign=top;spacingLeft=4;spacingRight=4;overflow=hidden;rotatable=0;points=[[0,0.5],[1,0.5]];portConstraint=eastwest;fontSize=14;" vertex="1" parent="HKb_NUVMWkxJ74cnmcRa-50">
          <mxGeometry y="85.13433183942522" width="300" height="26" as="geometry" />
        </mxCell>
        <mxCell id="HKb_NUVMWkxJ74cnmcRa-54" style="line;strokeWidth=1;fillColor=none;align=left;verticalAlign=middle;spacingTop=-1;spacingLeft=3;spacingRight=3;rotatable=0;labelPosition=right;points=[];portConstraint=eastwest;strokeColor=inherit;fontSize=14;" vertex="1" parent="HKb_NUVMWkxJ74cnmcRa-50">
          <mxGeometry y="111.13433183942522" width="300" height="26" as="geometry" />
        </mxCell>
        <mxCell id="HKb_NUVMWkxJ74cnmcRa-55" value="+execute(context: GatewayController) : : void" style="text;strokeColor=none;fillColor=none;align=left;verticalAlign=top;spacingLeft=4;spacingRight=4;overflow=hidden;rotatable=0;points=[[0,0.5],[1,0.5]];portConstraint=eastwest;fontSize=14;" vertex="1" parent="HKb_NUVMWkxJ74cnmcRa-50">
          <mxGeometry y="137.13433183942522" width="300" height="26" as="geometry" />
        </mxCell>
        <mxCell id="HKb_NUVMWkxJ74cnmcRa-56" value="+serialize() : : String" style="text;strokeColor=none;fillColor=none;align=left;verticalAlign=top;spacingLeft=4;spacingRight=4;overflow=hidden;rotatable=0;points=[[0,0.5],[1,0.5]];portConstraint=eastwest;fontSize=14;" vertex="1" parent="HKb_NUVMWkxJ74cnmcRa-50">
          <mxGeometry y="163.13433183942522" width="300" height="26" as="geometry" />
        </mxCell>
        <mxCell id="HKb_NUVMWkxJ74cnmcRa-57" value="+deserialize(data: String) : : ICommand" style="text;strokeColor=none;fillColor=none;align=left;verticalAlign=top;spacingLeft=4;spacingRight=4;overflow=hidden;rotatable=0;points=[[0,0.5],[1,0.5]];portConstraint=eastwest;fontSize=14;" vertex="1" parent="HKb_NUVMWkxJ74cnmcRa-50">
          <mxGeometry y="189.13433183942522" width="300" height="26" as="geometry" />
        </mxCell>
        <mxCell id="HKb_NUVMWkxJ74cnmcRa-58" value="&lt;&lt;class&gt;&gt;&#xa;ReportStatusCommand" style="swimlane;fontStyle=1;align=center;verticalAlign=top;childLayout=stackLayout;horizontal=1;startSize=40;horizontalStack=0;resizeParent=1;resizeParentMax=0;resizeLast=0;collapsible=0;marginBottom=0;fontSize=14;" vertex="1" parent="1">
          <mxGeometry x="-196" y="400" width="296" height="196" as="geometry" />
        </mxCell>
        <mxCell id="HKb_NUVMWkxJ74cnmcRa-59" value="-String deviceId" style="text;strokeColor=none;fillColor=none;align=left;verticalAlign=top;spacingLeft=4;spacingRight=4;overflow=hidden;rotatable=0;points=[[0,0.5],[1,0.5]];portConstraint=eastwest;fontSize=14;" vertex="1" parent="HKb_NUVMWkxJ74cnmcRa-58">
          <mxGeometry y="40" width="296" height="26" as="geometry" />
        </mxCell>
        <mxCell id="HKb_NUVMWkxJ74cnmcRa-60" value="-String status" style="text;strokeColor=none;fillColor=none;align=left;verticalAlign=top;spacingLeft=4;spacingRight=4;overflow=hidden;rotatable=0;points=[[0,0.5],[1,0.5]];portConstraint=eastwest;fontSize=14;" vertex="1" parent="HKb_NUVMWkxJ74cnmcRa-58">
          <mxGeometry y="66" width="296" height="26" as="geometry" />
        </mxCell>
        <mxCell id="HKb_NUVMWkxJ74cnmcRa-61" style="line;strokeWidth=1;fillColor=none;align=left;verticalAlign=middle;spacingTop=-1;spacingLeft=3;spacingRight=3;rotatable=0;labelPosition=right;points=[];portConstraint=eastwest;strokeColor=inherit;fontSize=14;" vertex="1" parent="HKb_NUVMWkxJ74cnmcRa-58">
          <mxGeometry y="92" width="296" height="26" as="geometry" />
        </mxCell>
        <mxCell id="HKb_NUVMWkxJ74cnmcRa-62" value="+execute(context: GatewayController) : : void" style="text;strokeColor=none;fillColor=none;align=left;verticalAlign=top;spacingLeft=4;spacingRight=4;overflow=hidden;rotatable=0;points=[[0,0.5],[1,0.5]];portConstraint=eastwest;fontSize=14;" vertex="1" parent="HKb_NUVMWkxJ74cnmcRa-58">
          <mxGeometry y="118" width="296" height="26" as="geometry" />
        </mxCell>
        <mxCell id="HKb_NUVMWkxJ74cnmcRa-63" value="+serialize() : : String" style="text;strokeColor=none;fillColor=none;align=left;verticalAlign=top;spacingLeft=4;spacingRight=4;overflow=hidden;rotatable=0;points=[[0,0.5],[1,0.5]];portConstraint=eastwest;fontSize=14;" vertex="1" parent="HKb_NUVMWkxJ74cnmcRa-58">
          <mxGeometry y="144" width="296" height="26" as="geometry" />
        </mxCell>
        <mxCell id="HKb_NUVMWkxJ74cnmcRa-64" value="+deserialize(data: String) : : ICommand" style="text;strokeColor=none;fillColor=none;align=left;verticalAlign=top;spacingLeft=4;spacingRight=4;overflow=hidden;rotatable=0;points=[[0,0.5],[1,0.5]];portConstraint=eastwest;fontSize=14;" vertex="1" parent="HKb_NUVMWkxJ74cnmcRa-58">
          <mxGeometry y="170" width="296" height="26" as="geometry" />
        </mxCell>
        <mxCell id="HKb_NUVMWkxJ74cnmcRa-65" value="&lt;&lt;interface&gt;&gt;&#xa;ILocalStorage" style="swimlane;fontStyle=1;align=center;verticalAlign=top;childLayout=stackLayout;horizontal=1;startSize=56.987214660644526;horizontalStack=0;resizeParent=1;resizeParentMax=0;resizeLast=0;collapsible=0;marginBottom=0;fontSize=14;" vertex="1" parent="1">
          <mxGeometry x="-150" y="-20" width="280" height="160.98721466064453" as="geometry" />
        </mxCell>
        <mxCell id="HKb_NUVMWkxJ74cnmcRa-66" style="line;strokeWidth=1;fillColor=none;align=left;verticalAlign=middle;spacingTop=-1;spacingLeft=3;spacingRight=3;rotatable=0;labelPosition=right;points=[];portConstraint=eastwest;strokeColor=inherit;fontSize=14;" vertex="1" parent="HKb_NUVMWkxJ74cnmcRa-65">
          <mxGeometry y="56.987214660644526" width="280" height="26" as="geometry" />
        </mxCell>
        <mxCell id="HKb_NUVMWkxJ74cnmcRa-67" value="+saveData(key: String, data: String) : : void" style="text;strokeColor=none;fillColor=none;align=left;verticalAlign=top;spacingLeft=4;spacingRight=4;overflow=hidden;rotatable=0;points=[[0,0.5],[1,0.5]];portConstraint=eastwest;fontSize=14;" vertex="1" parent="HKb_NUVMWkxJ74cnmcRa-65">
          <mxGeometry y="82.98721466064453" width="280" height="26" as="geometry" />
        </mxCell>
        <mxCell id="HKb_NUVMWkxJ74cnmcRa-68" value="+loadData(key: String) : : String" style="text;strokeColor=none;fillColor=none;align=left;verticalAlign=top;spacingLeft=4;spacingRight=4;overflow=hidden;rotatable=0;points=[[0,0.5],[1,0.5]];portConstraint=eastwest;fontSize=14;" vertex="1" parent="HKb_NUVMWkxJ74cnmcRa-65">
          <mxGeometry y="108.98721466064453" width="280" height="26" as="geometry" />
        </mxCell>
        <mxCell id="HKb_NUVMWkxJ74cnmcRa-69" value="+deleteData(key: String) : : void" style="text;strokeColor=none;fillColor=none;align=left;verticalAlign=top;spacingLeft=4;spacingRight=4;overflow=hidden;rotatable=0;points=[[0,0.5],[1,0.5]];portConstraint=eastwest;fontSize=14;" vertex="1" parent="HKb_NUVMWkxJ74cnmcRa-65">
          <mxGeometry y="134.98721466064453" width="280" height="26" as="geometry" />
        </mxCell>
        <mxCell id="HKb_NUVMWkxJ74cnmcRa-70" value="FilePersistentStorage" style="swimlane;fontStyle=1;align=center;verticalAlign=top;childLayout=stackLayout;horizontal=1;startSize=36.79147644042969;horizontalStack=0;resizeParent=1;resizeParentMax=0;resizeLast=0;collapsible=0;marginBottom=0;fontSize=14;" vertex="1" parent="1">
          <mxGeometry x="220" y="-36" width="290" height="177.79147644042968" as="geometry" />
        </mxCell>
        <mxCell id="HKb_NUVMWkxJ74cnmcRa-71" value="-String filePath" style="text;strokeColor=none;fillColor=none;align=left;verticalAlign=top;spacingLeft=4;spacingRight=4;overflow=hidden;rotatable=0;points=[[0,0.5],[1,0.5]];portConstraint=eastwest;fontSize=14;" vertex="1" parent="HKb_NUVMWkxJ74cnmcRa-70">
          <mxGeometry y="36.79147644042969" width="290" height="37" as="geometry" />
        </mxCell>
        <mxCell id="HKb_NUVMWkxJ74cnmcRa-72" style="line;strokeWidth=1;fillColor=none;align=left;verticalAlign=middle;spacingTop=-1;spacingLeft=3;spacingRight=3;rotatable=0;labelPosition=right;points=[];portConstraint=eastwest;strokeColor=inherit;fontSize=14;" vertex="1" parent="HKb_NUVMWkxJ74cnmcRa-70">
          <mxGeometry y="73.79147644042969" width="290" height="26" as="geometry" />
        </mxCell>
        <mxCell id="HKb_NUVMWkxJ74cnmcRa-73" value="+saveData(key: String, data: String) : : void" style="text;strokeColor=none;fillColor=none;align=left;verticalAlign=top;spacingLeft=4;spacingRight=4;overflow=hidden;rotatable=0;points=[[0,0.5],[1,0.5]];portConstraint=eastwest;fontSize=14;" vertex="1" parent="HKb_NUVMWkxJ74cnmcRa-70">
          <mxGeometry y="99.79147644042969" width="290" height="26" as="geometry" />
        </mxCell>
        <mxCell id="HKb_NUVMWkxJ74cnmcRa-74" value="+loadData(key: String) : : String" style="text;strokeColor=none;fillColor=none;align=left;verticalAlign=top;spacingLeft=4;spacingRight=4;overflow=hidden;rotatable=0;points=[[0,0.5],[1,0.5]];portConstraint=eastwest;fontSize=14;" vertex="1" parent="HKb_NUVMWkxJ74cnmcRa-70">
          <mxGeometry y="125.79147644042969" width="290" height="26" as="geometry" />
        </mxCell>
        <mxCell id="HKb_NUVMWkxJ74cnmcRa-75" value="+deleteData(key: String) : : void" style="text;strokeColor=none;fillColor=none;align=left;verticalAlign=top;spacingLeft=4;spacingRight=4;overflow=hidden;rotatable=0;points=[[0,0.5],[1,0.5]];portConstraint=eastwest;fontSize=14;" vertex="1" parent="HKb_NUVMWkxJ74cnmcRa-70">
          <mxGeometry y="151.79147644042968" width="290" height="26" as="geometry" />
        </mxCell>
        <mxCell id="HKb_NUVMWkxJ74cnmcRa-76" value="&lt;&lt;interface&gt;&gt;&#xa;IMQTTBroker" style="swimlane;fontStyle=1;align=center;verticalAlign=top;childLayout=stackLayout;horizontal=1;startSize=56.987214660644526;horizontalStack=0;resizeParent=1;resizeParentMax=0;resizeLast=0;collapsible=0;marginBottom=0;fontSize=14;" vertex="1" parent="1">
          <mxGeometry x="-142" y="-512.99" width="312" height="160.98721466064453" as="geometry" />
        </mxCell>
        <mxCell id="HKb_NUVMWkxJ74cnmcRa-77" style="line;strokeWidth=1;fillColor=none;align=left;verticalAlign=middle;spacingTop=-1;spacingLeft=3;spacingRight=3;rotatable=0;labelPosition=right;points=[];portConstraint=eastwest;strokeColor=inherit;fontSize=14;" vertex="1" parent="HKb_NUVMWkxJ74cnmcRa-76">
          <mxGeometry y="56.987214660644526" width="312" height="26" as="geometry" />
        </mxCell>
        <mxCell id="HKb_NUVMWkxJ74cnmcRa-78" value="+publish(topic: String, message: String) : : void" style="text;strokeColor=none;fillColor=none;align=left;verticalAlign=top;spacingLeft=4;spacingRight=4;overflow=hidden;rotatable=0;points=[[0,0.5],[1,0.5]];portConstraint=eastwest;fontSize=14;" vertex="1" parent="HKb_NUVMWkxJ74cnmcRa-76">
          <mxGeometry y="82.98721466064453" width="312" height="26" as="geometry" />
        </mxCell>
        <mxCell id="HKb_NUVMWkxJ74cnmcRa-79" value="+subscribe(topic: String) : : void" style="text;strokeColor=none;fillColor=none;align=left;verticalAlign=top;spacingLeft=4;spacingRight=4;overflow=hidden;rotatable=0;points=[[0,0.5],[1,0.5]];portConstraint=eastwest;fontSize=14;" vertex="1" parent="HKb_NUVMWkxJ74cnmcRa-76">
          <mxGeometry y="108.98721466064453" width="312" height="26" as="geometry" />
        </mxCell>
        <mxCell id="HKb_NUVMWkxJ74cnmcRa-80" value="+onMessageReceived(callback) : : void" style="text;strokeColor=none;fillColor=none;align=left;verticalAlign=top;spacingLeft=4;spacingRight=4;overflow=hidden;rotatable=0;points=[[0,0.5],[1,0.5]];portConstraint=eastwest;fontSize=14;" vertex="1" parent="HKb_NUVMWkxJ74cnmcRa-76">
          <mxGeometry y="134.98721466064453" width="312" height="26" as="geometry" />
        </mxCell>
        <mxCell id="HKb_NUVMWkxJ74cnmcRa-81" value="&lt;&lt;interface&gt;&gt;&#xa;IDeviceMonitor" style="swimlane;fontStyle=1;align=center;verticalAlign=top;childLayout=stackLayout;horizontal=1;startSize=56.987214660644526;horizontalStack=0;resizeParent=1;resizeParentMax=0;resizeLast=0;collapsible=0;marginBottom=0;fontSize=14;" vertex="1" parent="1">
          <mxGeometry x="-654" y="-479.85" width="376" height="160.98721466064453" as="geometry" />
        </mxCell>
        <mxCell id="HKb_NUVMWkxJ74cnmcRa-82" style="line;strokeWidth=1;fillColor=none;align=left;verticalAlign=middle;spacingTop=-1;spacingLeft=3;spacingRight=3;rotatable=0;labelPosition=right;points=[];portConstraint=eastwest;strokeColor=inherit;fontSize=14;" vertex="1" parent="HKb_NUVMWkxJ74cnmcRa-81">
          <mxGeometry y="56.987214660644526" width="376" height="26" as="geometry" />
        </mxCell>
        <mxCell id="HKb_NUVMWkxJ74cnmcRa-83" value="+registerObserver(observer: GatewayController) : : void" style="text;strokeColor=none;fillColor=none;align=left;verticalAlign=top;spacingLeft=4;spacingRight=4;overflow=hidden;rotatable=0;points=[[0,0.5],[1,0.5]];portConstraint=eastwest;fontSize=14;" vertex="1" parent="HKb_NUVMWkxJ74cnmcRa-81">
          <mxGeometry y="82.98721466064453" width="376" height="26" as="geometry" />
        </mxCell>
        <mxCell id="HKb_NUVMWkxJ74cnmcRa-84" value="+unregisterObserver(observer: GatewayController) : : void" style="text;strokeColor=none;fillColor=none;align=left;verticalAlign=top;spacingLeft=4;spacingRight=4;overflow=hidden;rotatable=0;points=[[0,0.5],[1,0.5]];portConstraint=eastwest;fontSize=14;" vertex="1" parent="HKb_NUVMWkxJ74cnmcRa-81">
          <mxGeometry y="108.98721466064453" width="376" height="26" as="geometry" />
        </mxCell>
        <mxCell id="HKb_NUVMWkxJ74cnmcRa-85" value="+notifyDeviceStatusChanged(deviceId: String, status: String) : : void" style="text;strokeColor=none;fillColor=none;align=left;verticalAlign=top;spacingLeft=4;spacingRight=4;overflow=hidden;rotatable=0;points=[[0,0.5],[1,0.5]];portConstraint=eastwest;fontSize=14;" vertex="1" parent="HKb_NUVMWkxJ74cnmcRa-81">
          <mxGeometry y="134.98721466064453" width="376" height="26" as="geometry" />
        </mxCell>
        <mxCell id="HKb_NUVMWkxJ74cnmcRa-86" value="" style="startArrow=none;endArrow=block;endSize=16;endFill=0;exitX=0;exitY=0.5;entryX=0;entryY=0.5;rounded=0;fontSize=14;edgeStyle=orthogonalEdgeStyle;dashed=1;entryDx=0;entryDy=0;exitDx=0;exitDy=0;jumpStyle=arc;jumpSize=13;" edge="1" parent="1" source="HKb_NUVMWkxJ74cnmcRa-9" target="HKb_NUVMWkxJ74cnmcRa-20">
          <mxGeometry relative="1" as="geometry">
            <Array as="points">
              <mxPoint x="-654" y="-176" />
              <mxPoint x="-710" y="-176" />
              <mxPoint x="-710" y="-570" />
            </Array>
          </mxGeometry>
        </mxCell>
        <mxCell id="HKb_NUVMWkxJ74cnmcRa-87" value="" style="startArrow=none;endArrow=block;endSize=16;endFill=0;exitX=1;exitY=0.45;entryX=0;entryY=0.65;rounded=0;fontSize=14;edgeStyle=orthogonalEdgeStyle;dashed=1;" edge="1" parent="1" source="HKb_NUVMWkxJ74cnmcRa-35" target="HKb_NUVMWkxJ74cnmcRa-30">
          <mxGeometry relative="1" as="geometry" />
        </mxCell>
        <mxCell id="HKb_NUVMWkxJ74cnmcRa-88" value="" style="startArrow=none;endArrow=diamondThin;endSize=14;endFill=0;exitX=0.65;exitY=0;entryX=0;entryY=0.5;rounded=0;fontSize=14;edgeStyle=orthogonalEdgeStyle;entryDx=0;entryDy=0;jumpStyle=arc;" edge="1" parent="1" source="HKb_NUVMWkxJ74cnmcRa-35" target="HKb_NUVMWkxJ74cnmcRa-69">
          <mxGeometry relative="1" as="geometry" />
        </mxCell>
        <mxCell id="HKb_NUVMWkxJ74cnmcRa-89" value="" style="startArrow=diamondThin;endArrow=none;endSize=14;endFill=0;exitX=1;exitY=0.5;entryX=0;entryY=0.5;rounded=0;fontSize=14;edgeStyle=orthogonalEdgeStyle;startSize=14;startFill=0;" edge="1" parent="1" source="HKb_NUVMWkxJ74cnmcRa-30" target="HKb_NUVMWkxJ74cnmcRa-45">
          <mxGeometry x="-0.0909" y="19" relative="1" as="geometry">
            <mxPoint as="offset" />
          </mxGeometry>
        </mxCell>
        <mxCell id="HKb_NUVMWkxJ74cnmcRa-90" value="" style="dashed=1;startArrow=block;startSize=16;startFill=0;endArrow=none;entryX=1;entryY=0.5;rounded=0;fontSize=14;edgeStyle=orthogonalEdgeStyle;entryDx=0;entryDy=0;" edge="1" parent="1" source="HKb_NUVMWkxJ74cnmcRa-45" target="HKb_NUVMWkxJ74cnmcRa-55">
          <mxGeometry relative="1" as="geometry">
            <Array as="points">
              <mxPoint x="570" y="240" />
              <mxPoint x="570" y="-133" />
              <mxPoint x="524" y="-133" />
            </Array>
          </mxGeometry>
        </mxCell>
        <mxCell id="HKb_NUVMWkxJ74cnmcRa-91" value="" style="dashed=1;startArrow=block;startSize=16;startFill=0;endArrow=none;exitX=0;exitY=0.5;entryX=1;entryY=0.5;rounded=0;fontSize=14;edgeStyle=orthogonalEdgeStyle;entryDx=0;entryDy=0;exitDx=0;exitDy=0;" edge="1" parent="1" source="HKb_NUVMWkxJ74cnmcRa-49" target="HKb_NUVMWkxJ74cnmcRa-59">
          <mxGeometry relative="1" as="geometry" />
        </mxCell>
        <mxCell id="HKb_NUVMWkxJ74cnmcRa-92" value="" style="dashed=1;startArrow=none;endArrow=open;endSize=12;exitX=0;exitY=0.19;entryX=0.69;entryY=1;rounded=0;fontSize=14;edgeStyle=orthogonalEdgeStyle;jumpStyle=arc;jumpSize=16;" edge="1" parent="1" source="HKb_NUVMWkxJ74cnmcRa-58" target="HKb_NUVMWkxJ74cnmcRa-6">
          <mxGeometry relative="1" as="geometry">
            <Array as="points">
              <mxPoint x="-354" y="497" />
            </Array>
          </mxGeometry>
        </mxCell>
        <mxCell id="HKb_NUVMWkxJ74cnmcRa-93" value="" style="startArrow=none;endArrow=block;endSize=16;endFill=0;exitX=0;exitY=0.5;entryX=1;entryY=0.5;rounded=0;fontSize=14;edgeStyle=orthogonalEdgeStyle;entryDx=0;entryDy=0;exitDx=0;exitDy=0;dashed=1;" edge="1" parent="1" source="HKb_NUVMWkxJ74cnmcRa-73" target="HKb_NUVMWkxJ74cnmcRa-67">
          <mxGeometry relative="1" as="geometry" />
        </mxCell>
        <mxCell id="HKb_NUVMWkxJ74cnmcRa-94" value="" style="startArrow=diamondThin;endArrow=none;endSize=14;endFill=0;exitX=0.8;exitY=1;entryX=0;entryY=0.2;rounded=0;fontSize=14;edgeStyle=orthogonalEdgeStyle;startFill=0;startSize=14;jumpStyle=arc;jumpSize=16;" edge="1" parent="1" source="HKb_NUVMWkxJ74cnmcRa-6" target="HKb_NUVMWkxJ74cnmcRa-30">
          <mxGeometry relative="1" as="geometry" />
        </mxCell>
        <mxCell id="HKb_NUVMWkxJ74cnmcRa-95" value="" style="startArrow=none;endArrow=open;endSize=14;endFill=0;exitX=1;exitY=0.5;entryX=0;entryY=0.22;rounded=0;fontSize=14;edgeStyle=orthogonalEdgeStyle;dashed=1;exitDx=0;exitDy=0;" edge="1" parent="1" source="HKb_NUVMWkxJ74cnmcRa-8" target="HKb_NUVMWkxJ74cnmcRa-23">
          <mxGeometry relative="1" as="geometry" />
        </mxCell>
        <mxCell id="HKb_NUVMWkxJ74cnmcRa-96" value="" style="startArrow=none;endArrow=open;endSize=14;endFill=0;exitX=1;exitY=0.5;entryX=0;entryY=0.27;rounded=0;fontSize=14;edgeStyle=orthogonalEdgeStyle;dashed=1;exitDx=0;exitDy=0;" edge="1" parent="1" target="HKb_NUVMWkxJ74cnmcRa-65">
          <mxGeometry relative="1" as="geometry">
            <mxPoint x="-220" y="-53.08544921875" as="sourcePoint" />
          </mxGeometry>
        </mxCell>
        <mxCell id="HKb_NUVMWkxJ74cnmcRa-97" style="edgeStyle=orthogonalEdgeStyle;rounded=0;orthogonalLoop=1;jettySize=auto;html=1;exitX=0;exitY=0.5;exitDx=0;exitDy=0;entryX=0;entryY=0.5;entryDx=0;entryDy=0;endSize=12;dashed=1;endArrow=open;endFill=0;fillColor=#e1d5e7;strokeColor=#000000;jumpStyle=arc;jumpSize=17;" edge="1" parent="1" source="HKb_NUVMWkxJ74cnmcRa-18" target="HKb_NUVMWkxJ74cnmcRa-84">
          <mxGeometry relative="1" as="geometry" />
        </mxCell>
        <mxCell id="HKb_NUVMWkxJ74cnmcRa-98" style="edgeStyle=orthogonalEdgeStyle;rounded=0;orthogonalLoop=1;jettySize=auto;html=1;exitX=0.5;exitY=0;exitDx=0;exitDy=0;entryX=1;entryY=0.5;entryDx=0;entryDy=0;endArrow=open;endFill=0;endSize=16;" edge="1" parent="1" source="HKb_NUVMWkxJ74cnmcRa-99" target="HKb_NUVMWkxJ74cnmcRa-28">
          <mxGeometry relative="1" as="geometry" />
        </mxCell>
        <mxCell id="HKb_NUVMWkxJ74cnmcRa-99" value="&lt;&lt;class&gt;&gt;&#xa;HomeAssistantDeviceAdapter" style="swimlane;fontStyle=1;align=center;verticalAlign=top;childLayout=stackLayout;horizontal=1;startSize=40;horizontalStack=0;resizeParent=1;resizeParentMax=0;resizeLast=0;collapsible=0;marginBottom=0;fontSize=14;" vertex="1" parent="1">
          <mxGeometry x="230" y="-530" width="298" height="196" as="geometry" />
        </mxCell>
        <mxCell id="HKb_NUVMWkxJ74cnmcRa-100" value="-HomeAssistantAPI haAPI" style="text;strokeColor=none;fillColor=none;align=left;verticalAlign=top;spacingLeft=4;spacingRight=4;overflow=hidden;rotatable=0;points=[[0,0.5],[1,0.5]];portConstraint=eastwest;fontSize=14;" vertex="1" parent="HKb_NUVMWkxJ74cnmcRa-99">
          <mxGeometry y="40" width="298" height="26" as="geometry" />
        </mxCell>
        <mxCell id="HKb_NUVMWkxJ74cnmcRa-101" value="-String entityIdMap[string]" style="text;strokeColor=none;fillColor=none;align=left;verticalAlign=top;spacingLeft=4;spacingRight=4;overflow=hidden;rotatable=0;points=[[0,0.5],[1,0.5]];portConstraint=eastwest;fontSize=14;" vertex="1" parent="HKb_NUVMWkxJ74cnmcRa-99">
          <mxGeometry y="66" width="298" height="26" as="geometry" />
        </mxCell>
        <mxCell id="HKb_NUVMWkxJ74cnmcRa-102" style="line;strokeWidth=1;fillColor=none;align=left;verticalAlign=middle;spacingTop=-1;spacingLeft=3;spacingRight=3;rotatable=0;labelPosition=right;points=[];portConstraint=eastwest;strokeColor=inherit;fontSize=14;" vertex="1" parent="HKb_NUVMWkxJ74cnmcRa-99">
          <mxGeometry y="92" width="298" height="26" as="geometry" />
        </mxCell>
        <mxCell id="HKb_NUVMWkxJ74cnmcRa-103" value="+turnOn(deviceId: String)" style="text;strokeColor=none;fillColor=none;align=left;verticalAlign=top;spacingLeft=4;spacingRight=4;overflow=hidden;rotatable=0;points=[[0,0.5],[1,0.5]];portConstraint=eastwest;fontSize=14;" vertex="1" parent="HKb_NUVMWkxJ74cnmcRa-99">
          <mxGeometry y="118" width="298" height="26" as="geometry" />
        </mxCell>
        <mxCell id="HKb_NUVMWkxJ74cnmcRa-104" value="+turnOff(deviceId: String)" style="text;strokeColor=none;fillColor=none;align=left;verticalAlign=top;spacingLeft=4;spacingRight=4;overflow=hidden;rotatable=0;points=[[0,0.5],[1,0.5]];portConstraint=eastwest;fontSize=14;" vertex="1" parent="HKb_NUVMWkxJ74cnmcRa-99">
          <mxGeometry y="144" width="298" height="26" as="geometry" />
        </mxCell>
        <mxCell id="HKb_NUVMWkxJ74cnmcRa-105" value="+getDeviceStatus(deviceId: String) : : String" style="text;strokeColor=none;fillColor=none;align=left;verticalAlign=top;spacingLeft=4;spacingRight=4;overflow=hidden;rotatable=0;points=[[0,0.5],[1,0.5]];portConstraint=eastwest;fontSize=14;" vertex="1" parent="HKb_NUVMWkxJ74cnmcRa-99">
          <mxGeometry y="170" width="298" height="26" as="geometry" />
        </mxCell>
        <mxCell id="HKb_NUVMWkxJ74cnmcRa-106" style="edgeStyle=orthogonalEdgeStyle;rounded=0;orthogonalLoop=1;jettySize=auto;html=1;exitX=0;exitY=0.5;exitDx=0;exitDy=0;entryX=1;entryY=0.5;entryDx=0;entryDy=0;dashed=1;endArrow=open;endFill=0;" edge="1" parent="1" source="HKb_NUVMWkxJ74cnmcRa-56" target="HKb_NUVMWkxJ74cnmcRa-12">
          <mxGeometry relative="1" as="geometry" />
        </mxCell>
        <mxCell id="HKb_NUVMWkxJ74cnmcRa-107" style="edgeStyle=orthogonalEdgeStyle;rounded=0;orthogonalLoop=1;jettySize=auto;html=1;exitX=0;exitY=0.5;exitDx=0;exitDy=0;entryX=0.5;entryY=0;entryDx=0;entryDy=0;endArrow=block;endFill=0;dashed=1;endSize=14;" edge="1" parent="1" source="HKb_NUVMWkxJ74cnmcRa-104" target="HKb_NUVMWkxJ74cnmcRa-23">
          <mxGeometry relative="1" as="geometry">
            <Array as="points">
              <mxPoint x="198" y="-373" />
              <mxPoint x="198" y="-330" />
              <mxPoint x="20" y="-330" />
            </Array>
          </mxGeometry>
        </mxCell>
        <mxCell id="HKb_NUVMWkxJ74cnmcRa-108" value="GatewayController" style="shape=umlFrame;whiteSpace=wrap;html=1;pointerEvents=0;recursiveResize=0;container=1;collapsible=0;width=160;" vertex="1" parent="1">
          <mxGeometry x="-720" y="-1040" width="390" height="280" as="geometry" />
        </mxCell>
        <mxCell id="VUm8Ec2M1YMUWV_NvpTi-1" value="" style="rounded=0;whiteSpace=wrap;html=1;fontSize=14;" vertex="1" parent="HKb_NUVMWkxJ74cnmcRa-108">
          <mxGeometry x="225" y="120" width="120" height="60" as="geometry" />
        </mxCell>
        <mxCell id="VUm8Ec2M1YMUWV_NvpTi-2" value="«process»&lt;br&gt;&lt;b&gt;:GatewayController&lt;/b&gt;" style="html=1;dropTarget=0;whiteSpace=wrap;fontSize=14;" vertex="1" parent="HKb_NUVMWkxJ74cnmcRa-108">
          <mxGeometry x="85" y="110" width="180" height="90" as="geometry" />
        </mxCell>
        <mxCell id="VUm8Ec2M1YMUWV_NvpTi-3" value="" style="shape=module;jettyWidth=8;jettyHeight=4;fontSize=14;" vertex="1" parent="VUm8Ec2M1YMUWV_NvpTi-2">
          <mxGeometry x="1" width="20" height="20" relative="1" as="geometry">
            <mxPoint x="-27" y="7" as="offset" />
          </mxGeometry>
        </mxCell>
        <mxCell id="VUm8Ec2M1YMUWV_NvpTi-4" value="" style="group;rotation=90;fontSize=14;" vertex="1" connectable="0" parent="HKb_NUVMWkxJ74cnmcRa-108">
          <mxGeometry x="286" y="140" width="20" height="80" as="geometry" />
        </mxCell>
        <mxCell id="VUm8Ec2M1YMUWV_NvpTi-5" style="edgeStyle=orthogonalEdgeStyle;rounded=0;orthogonalLoop=1;jettySize=auto;html=1;exitX=0.5;exitY=0;exitDx=0;exitDy=0;endArrow=circle;endFill=0;fontSize=14;" edge="1" parent="VUm8Ec2M1YMUWV_NvpTi-4" source="VUm8Ec2M1YMUWV_NvpTi-6">
          <mxGeometry relative="1" as="geometry">
            <mxPoint x="50" y="40" as="targetPoint" />
          </mxGeometry>
        </mxCell>
        <mxCell id="VUm8Ec2M1YMUWV_NvpTi-6" value="" style="whiteSpace=wrap;html=1;aspect=fixed;rotation=90;fontSize=14;" vertex="1" parent="VUm8Ec2M1YMUWV_NvpTi-4">
          <mxGeometry x="-30" y="30" width="20" height="20" as="geometry" />
        </mxCell>
        <mxCell id="VUm8Ec2M1YMUWV_NvpTi-7" value="" style="group;rotation=-90;fontSize=14;" vertex="1" connectable="0" parent="HKb_NUVMWkxJ74cnmcRa-108">
          <mxGeometry x="45" y="110" width="20" height="80" as="geometry" />
        </mxCell>
        <mxCell id="VUm8Ec2M1YMUWV_NvpTi-8" style="edgeStyle=orthogonalEdgeStyle;rounded=0;orthogonalLoop=1;jettySize=auto;html=1;exitX=0.5;exitY=0;exitDx=0;exitDy=0;endArrow=halfCircle;endFill=0;fontSize=14;" edge="1" parent="VUm8Ec2M1YMUWV_NvpTi-7" source="VUm8Ec2M1YMUWV_NvpTi-9">
          <mxGeometry relative="1" as="geometry">
            <mxPoint x="-30" y="40" as="targetPoint" />
          </mxGeometry>
        </mxCell>
        <mxCell id="VUm8Ec2M1YMUWV_NvpTi-9" value="" style="whiteSpace=wrap;html=1;aspect=fixed;rotation=-90;fontSize=14;" vertex="1" parent="VUm8Ec2M1YMUWV_NvpTi-7">
          <mxGeometry x="30" y="30" width="20" height="20" as="geometry" />
        </mxCell>
        <mxCell id="VUm8Ec2M1YMUWV_NvpTi-10" value="" style="group;fontSize=14;" vertex="1" connectable="0" parent="HKb_NUVMWkxJ74cnmcRa-108">
          <mxGeometry x="95" y="40" width="20" height="80" as="geometry" />
        </mxCell>
        <mxCell id="VUm8Ec2M1YMUWV_NvpTi-11" style="edgeStyle=orthogonalEdgeStyle;rounded=0;orthogonalLoop=1;jettySize=auto;html=1;exitX=0.5;exitY=0;exitDx=0;exitDy=0;endArrow=halfCircle;endFill=0;fontSize=14;" edge="1" parent="VUm8Ec2M1YMUWV_NvpTi-10" source="VUm8Ec2M1YMUWV_NvpTi-12">
          <mxGeometry relative="1" as="geometry">
            <mxPoint x="10" as="targetPoint" />
          </mxGeometry>
        </mxCell>
        <mxCell id="VUm8Ec2M1YMUWV_NvpTi-12" value="" style="whiteSpace=wrap;html=1;aspect=fixed;fontSize=14;" vertex="1" parent="VUm8Ec2M1YMUWV_NvpTi-10">
          <mxGeometry y="60" width="20" height="20" as="geometry" />
        </mxCell>
        <mxCell id="VUm8Ec2M1YMUWV_NvpTi-13" value="" style="group;fontSize=14;" vertex="1" connectable="0" parent="HKb_NUVMWkxJ74cnmcRa-108">
          <mxGeometry x="195" y="40" width="20" height="80" as="geometry" />
        </mxCell>
        <mxCell id="VUm8Ec2M1YMUWV_NvpTi-14" style="edgeStyle=orthogonalEdgeStyle;rounded=0;orthogonalLoop=1;jettySize=auto;html=1;exitX=0.5;exitY=0;exitDx=0;exitDy=0;endArrow=halfCircle;endFill=0;fontSize=14;" edge="1" parent="VUm8Ec2M1YMUWV_NvpTi-13" source="VUm8Ec2M1YMUWV_NvpTi-15">
          <mxGeometry relative="1" as="geometry">
            <mxPoint x="10" as="targetPoint" />
          </mxGeometry>
        </mxCell>
        <mxCell id="VUm8Ec2M1YMUWV_NvpTi-15" value="" style="whiteSpace=wrap;html=1;aspect=fixed;fontSize=14;" vertex="1" parent="VUm8Ec2M1YMUWV_NvpTi-13">
          <mxGeometry y="60" width="20" height="20" as="geometry" />
        </mxCell>
        <mxCell id="VUm8Ec2M1YMUWV_NvpTi-16" value="" style="group;rotation=-180;fontSize=14;" vertex="1" connectable="0" parent="HKb_NUVMWkxJ74cnmcRa-108">
          <mxGeometry x="95" y="190" width="20" height="80" as="geometry" />
        </mxCell>
        <mxCell id="VUm8Ec2M1YMUWV_NvpTi-17" style="edgeStyle=orthogonalEdgeStyle;rounded=0;orthogonalLoop=1;jettySize=auto;html=1;exitX=0.5;exitY=0;exitDx=0;exitDy=0;endArrow=halfCircle;endFill=0;fontSize=14;" edge="1" parent="VUm8Ec2M1YMUWV_NvpTi-16" source="VUm8Ec2M1YMUWV_NvpTi-18">
          <mxGeometry relative="1" as="geometry">
            <mxPoint x="10" y="80" as="targetPoint" />
          </mxGeometry>
        </mxCell>
        <mxCell id="VUm8Ec2M1YMUWV_NvpTi-18" value="" style="whiteSpace=wrap;html=1;aspect=fixed;rotation=-180;fontSize=14;" vertex="1" parent="VUm8Ec2M1YMUWV_NvpTi-16">
          <mxGeometry width="20" height="20" as="geometry" />
        </mxCell>
        <mxCell id="VUm8Ec2M1YMUWV_NvpTi-19" value="IGatewayService" style="text;html=1;align=center;verticalAlign=middle;resizable=0;points=[];autosize=1;strokeColor=none;fillColor=none;fontSize=14;" vertex="1" parent="HKb_NUVMWkxJ74cnmcRa-108">
          <mxGeometry x="265" y="180" width="130" height="30" as="geometry" />
        </mxCell>
        <mxCell id="VUm8Ec2M1YMUWV_NvpTi-20" value="IMQTTBroker" style="text;html=1;align=center;verticalAlign=middle;resizable=0;points=[];autosize=1;strokeColor=none;fillColor=none;fontSize=14;" vertex="1" parent="HKb_NUVMWkxJ74cnmcRa-108">
          <mxGeometry x="105" y="220" width="110" height="30" as="geometry" />
        </mxCell>
        <mxCell id="VUm8Ec2M1YMUWV_NvpTi-21" value="IDeviceControl" style="text;html=1;align=center;verticalAlign=middle;resizable=0;points=[];autosize=1;strokeColor=none;fillColor=none;fontSize=14;" vertex="1" parent="HKb_NUVMWkxJ74cnmcRa-108">
          <mxGeometry x="196" y="60" width="120" height="30" as="geometry" />
        </mxCell>
        <mxCell id="VUm8Ec2M1YMUWV_NvpTi-22" value="IDeviceMonitor" style="text;html=1;align=center;verticalAlign=middle;resizable=0;points=[];autosize=1;strokeColor=none;fillColor=none;fontSize=14;" vertex="1" parent="HKb_NUVMWkxJ74cnmcRa-108">
          <mxGeometry x="90" y="60" width="120" height="30" as="geometry" />
        </mxCell>
        <mxCell id="VUm8Ec2M1YMUWV_NvpTi-23" value="ILocalStorage" style="text;html=1;align=center;verticalAlign=middle;resizable=0;points=[];autosize=1;strokeColor=none;fillColor=none;fontSize=14;" vertex="1" parent="HKb_NUVMWkxJ74cnmcRa-108">
          <mxGeometry x="-10" y="120" width="110" height="30" as="geometry" />
        </mxCell>
        <mxCell id="HKb_NUVMWkxJ74cnmcRa-111" style="edgeStyle=orthogonalEdgeStyle;rounded=0;orthogonalLoop=1;jettySize=auto;html=1;exitX=0.5;exitY=1;exitDx=0;exitDy=0;entryX=0.5;entryY=0;entryDx=0;entryDy=0;endArrow=open;endFill=0;endSize=16;" edge="1" parent="1" source="HKb_NUVMWkxJ74cnmcRa-109" target="HKb_NUVMWkxJ74cnmcRa-76">
          <mxGeometry relative="1" as="geometry" />
        </mxCell>
        <mxCell id="HKb_NUVMWkxJ74cnmcRa-109" value="MQTT" style="swimlane;fontStyle=1;align=center;verticalAlign=top;childLayout=stackLayout;horizontal=1;startSize=40.56412615094866;horizontalStack=0;resizeParent=1;resizeParentMax=0;resizeLast=0;collapsible=0;marginBottom=0;fontSize=14;" vertex="1" parent="1">
          <mxGeometry x="-105" y="-630" width="238" height="48.56412615094866" as="geometry" />
        </mxCell>
        <mxCell id="HKb_NUVMWkxJ74cnmcRa-110" style="line;strokeWidth=1;fillColor=none;align=left;verticalAlign=middle;spacingTop=-1;spacingLeft=3;spacingRight=3;rotatable=0;labelPosition=right;points=[];portConstraint=eastwest;strokeColor=inherit;fontSize=14;" vertex="1" parent="HKb_NUVMWkxJ74cnmcRa-109">
          <mxGeometry y="40.56412615094866" width="238" height="8" as="geometry" />
        </mxCell>
      </root>
    </mxGraphModel>
  </diagram>
  <diagram id="BSFcaZvAnZg8D3PjWfiR" name="페이지-2">
    <mxGraphModel dx="2820" dy="1542" grid="1" gridSize="10" guides="1" tooltips="1" connect="1" arrows="1" fold="1" page="1" pageScale="1" pageWidth="827" pageHeight="1169" math="0" shadow="0">
      <root>
        <mxCell id="0" />
        <mxCell id="1" parent="0" />
        <mxCell id="X_4TxRje71LcUuyWVhWx-1" value="GatewayController" style="swimlane;fontStyle=1;align=center;verticalAlign=top;childLayout=stackLayout;horizontal=1;startSize=30.391473388671876;horizontalStack=0;resizeParent=1;resizeParentMax=0;resizeLast=0;collapsible=0;marginBottom=0;" vertex="1" parent="1">
          <mxGeometry x="230" y="418" width="519" height="308.3914733886719" as="geometry" />
        </mxCell>
        <mxCell id="X_4TxRje71LcUuyWVhWx-2" value="-ICommandQueue commandQueue" style="text;strokeColor=none;fillColor=none;align=left;verticalAlign=top;spacingLeft=4;spacingRight=4;overflow=hidden;rotatable=0;points=[[0,0.5],[1,0.5]];portConstraint=eastwest;" vertex="1" parent="X_4TxRje71LcUuyWVhWx-1">
          <mxGeometry y="30.391473388671876" width="519" height="30" as="geometry" />
        </mxCell>
        <mxCell id="X_4TxRje71LcUuyWVhWx-3" value="-IDeviceControl deviceControl" style="text;strokeColor=none;fillColor=none;align=left;verticalAlign=top;spacingLeft=4;spacingRight=4;overflow=hidden;rotatable=0;points=[[0,0.5],[1,0.5]];portConstraint=eastwest;" vertex="1" parent="X_4TxRje71LcUuyWVhWx-1">
          <mxGeometry y="60.391473388671876" width="519" height="30" as="geometry" />
        </mxCell>
        <mxCell id="X_4TxRje71LcUuyWVhWx-4" value="-IMQTTBroker mqttBroker" style="text;strokeColor=none;fillColor=none;align=left;verticalAlign=top;spacingLeft=4;spacingRight=4;overflow=hidden;rotatable=0;points=[[0,0.5],[1,0.5]];portConstraint=eastwest;" vertex="1" parent="X_4TxRje71LcUuyWVhWx-1">
          <mxGeometry y="90.39147338867187" width="519" height="30" as="geometry" />
        </mxCell>
        <mxCell id="X_4TxRje71LcUuyWVhWx-5" value="-IDeviceMonitor deviceMonitor" style="text;strokeColor=none;fillColor=none;align=left;verticalAlign=top;spacingLeft=4;spacingRight=4;overflow=hidden;rotatable=0;points=[[0,0.5],[1,0.5]];portConstraint=eastwest;" vertex="1" parent="X_4TxRje71LcUuyWVhWx-1">
          <mxGeometry y="120.39147338867187" width="519" height="30" as="geometry" />
        </mxCell>
        <mxCell id="X_4TxRje71LcUuyWVhWx-6" value="-ILocalStorage localStorage" style="text;strokeColor=none;fillColor=none;align=left;verticalAlign=top;spacingLeft=4;spacingRight=4;overflow=hidden;rotatable=0;points=[[0,0.5],[1,0.5]];portConstraint=eastwest;" vertex="1" parent="X_4TxRje71LcUuyWVhWx-1">
          <mxGeometry y="150.39147338867187" width="519" height="30" as="geometry" />
        </mxCell>
        <mxCell id="X_4TxRje71LcUuyWVhWx-7" style="line;strokeWidth=1;fillColor=none;align=left;verticalAlign=middle;spacingTop=-1;spacingLeft=3;spacingRight=3;rotatable=0;labelPosition=right;points=[];portConstraint=eastwest;strokeColor=inherit;" vertex="1" parent="X_4TxRje71LcUuyWVhWx-1">
          <mxGeometry y="180.39147338867187" width="519" height="8" as="geometry" />
        </mxCell>
        <mxCell id="X_4TxRje71LcUuyWVhWx-8" value="+start()" style="text;strokeColor=none;fillColor=none;align=left;verticalAlign=top;spacingLeft=4;spacingRight=4;overflow=hidden;rotatable=0;points=[[0,0.5],[1,0.5]];portConstraint=eastwest;" vertex="1" parent="X_4TxRje71LcUuyWVhWx-1">
          <mxGeometry y="188.39147338867187" width="519" height="30" as="geometry" />
        </mxCell>
        <mxCell id="X_4TxRje71LcUuyWVhWx-9" value="+stop()" style="text;strokeColor=none;fillColor=none;align=left;verticalAlign=top;spacingLeft=4;spacingRight=4;overflow=hidden;rotatable=0;points=[[0,0.5],[1,0.5]];portConstraint=eastwest;" vertex="1" parent="X_4TxRje71LcUuyWVhWx-1">
          <mxGeometry y="218.39147338867187" width="519" height="30" as="geometry" />
        </mxCell>
        <mxCell id="X_4TxRje71LcUuyWVhWx-10" value="+processCloudCommand(command: String, payload: String)" style="text;strokeColor=none;fillColor=none;align=left;verticalAlign=top;spacingLeft=4;spacingRight=4;overflow=hidden;rotatable=0;points=[[0,0.5],[1,0.5]];portConstraint=eastwest;" vertex="1" parent="X_4TxRje71LcUuyWVhWx-1">
          <mxGeometry y="248.39147338867187" width="519" height="30" as="geometry" />
        </mxCell>
        <mxCell id="X_4TxRje71LcUuyWVhWx-11" value="+onDeviceStatusChanged(deviceId: String, status: String)" style="text;strokeColor=none;fillColor=none;align=left;verticalAlign=top;spacingLeft=4;spacingRight=4;overflow=hidden;rotatable=0;points=[[0,0.5],[1,0.5]];portConstraint=eastwest;" vertex="1" parent="X_4TxRje71LcUuyWVhWx-1">
          <mxGeometry y="278.3914733886719" width="519" height="30" as="geometry" />
        </mxCell>
        <mxCell id="X_4TxRje71LcUuyWVhWx-12" value="&lt;&lt;interface&gt;&gt;&#xa;IGatewayService" style="swimlane;fontStyle=1;align=center;verticalAlign=top;childLayout=stackLayout;horizontal=1;startSize=70.98722076416016;horizontalStack=0;resizeParent=1;resizeParentMax=0;resizeLast=0;collapsible=0;marginBottom=0;" vertex="1" parent="1">
          <mxGeometry x="887" y="20" width="511" height="125.98722076416016" as="geometry" />
        </mxCell>
        <mxCell id="X_4TxRje71LcUuyWVhWx-13" style="line;strokeWidth=1;fillColor=none;align=left;verticalAlign=middle;spacingTop=-1;spacingLeft=3;spacingRight=3;rotatable=0;labelPosition=right;points=[];portConstraint=eastwest;strokeColor=inherit;" vertex="1" parent="X_4TxRje71LcUuyWVhWx-12">
          <mxGeometry y="70.98722076416016" width="511" height="8" as="geometry" />
        </mxCell>
        <mxCell id="X_4TxRje71LcUuyWVhWx-14" value="+processCloudCommand(command: String, payload: String)" style="text;strokeColor=none;fillColor=none;align=left;verticalAlign=top;spacingLeft=4;spacingRight=4;overflow=hidden;rotatable=0;points=[[0,0.5],[1,0.5]];portConstraint=eastwest;" vertex="1" parent="X_4TxRje71LcUuyWVhWx-12">
          <mxGeometry y="78.98722076416016" width="511" height="47" as="geometry" />
        </mxCell>
        <mxCell id="X_4TxRje71LcUuyWVhWx-15" value="&lt;&lt;interface&gt;&gt;&#xa;IDeviceControl" style="swimlane;fontStyle=1;align=center;verticalAlign=top;childLayout=stackLayout;horizontal=1;startSize=62.23721694946289;horizontalStack=0;resizeParent=1;resizeParentMax=0;resizeLast=0;collapsible=0;marginBottom=0;" vertex="1" parent="1">
          <mxGeometry x="980" y="644" width="326" height="152.2372169494629" as="geometry" />
        </mxCell>
        <mxCell id="X_4TxRje71LcUuyWVhWx-16" style="line;strokeWidth=1;fillColor=none;align=left;verticalAlign=middle;spacingTop=-1;spacingLeft=3;spacingRight=3;rotatable=0;labelPosition=right;points=[];portConstraint=eastwest;strokeColor=inherit;" vertex="1" parent="X_4TxRje71LcUuyWVhWx-15">
          <mxGeometry y="62.23721694946289" width="326" height="8" as="geometry" />
        </mxCell>
        <mxCell id="X_4TxRje71LcUuyWVhWx-17" value="+turnOn(deviceId: String)" style="text;strokeColor=none;fillColor=none;align=left;verticalAlign=top;spacingLeft=4;spacingRight=4;overflow=hidden;rotatable=0;points=[[0,0.5],[1,0.5]];portConstraint=eastwest;" vertex="1" parent="X_4TxRje71LcUuyWVhWx-15">
          <mxGeometry y="70.23721694946289" width="326" height="41" as="geometry" />
        </mxCell>
        <mxCell id="X_4TxRje71LcUuyWVhWx-18" value="+getDeviceStatus(deviceId: String)" style="text;strokeColor=none;fillColor=none;align=left;verticalAlign=top;spacingLeft=4;spacingRight=4;overflow=hidden;rotatable=0;points=[[0,0.5],[1,0.5]];portConstraint=eastwest;" vertex="1" parent="X_4TxRje71LcUuyWVhWx-15">
          <mxGeometry y="111.23721694946289" width="326" height="41" as="geometry" />
        </mxCell>
        <mxCell id="X_4TxRje71LcUuyWVhWx-19" value="&lt;&lt;interface&gt;&gt;&#xa;IMQTTBroker" style="swimlane;fontStyle=1;align=center;verticalAlign=top;childLayout=stackLayout;horizontal=1;startSize=62.23721694946289;horizontalStack=0;resizeParent=1;resizeParentMax=0;resizeLast=0;collapsible=0;marginBottom=0;" vertex="1" parent="1">
          <mxGeometry x="965" y="220" width="356" height="152.2372169494629" as="geometry" />
        </mxCell>
        <mxCell id="X_4TxRje71LcUuyWVhWx-20" style="line;strokeWidth=1;fillColor=none;align=left;verticalAlign=middle;spacingTop=-1;spacingLeft=3;spacingRight=3;rotatable=0;labelPosition=right;points=[];portConstraint=eastwest;strokeColor=inherit;" vertex="1" parent="X_4TxRje71LcUuyWVhWx-19">
          <mxGeometry y="62.23721694946289" width="356" height="8" as="geometry" />
        </mxCell>
        <mxCell id="X_4TxRje71LcUuyWVhWx-21" value="+publish(topic: String, message: String)" style="text;strokeColor=none;fillColor=none;align=left;verticalAlign=top;spacingLeft=4;spacingRight=4;overflow=hidden;rotatable=0;points=[[0,0.5],[1,0.5]];portConstraint=eastwest;" vertex="1" parent="X_4TxRje71LcUuyWVhWx-19">
          <mxGeometry y="70.23721694946289" width="356" height="41" as="geometry" />
        </mxCell>
        <mxCell id="X_4TxRje71LcUuyWVhWx-22" value="+subscribe(topic: String)" style="text;strokeColor=none;fillColor=none;align=left;verticalAlign=top;spacingLeft=4;spacingRight=4;overflow=hidden;rotatable=0;points=[[0,0.5],[1,0.5]];portConstraint=eastwest;" vertex="1" parent="X_4TxRje71LcUuyWVhWx-19">
          <mxGeometry y="111.23721694946289" width="356" height="41" as="geometry" />
        </mxCell>
        <mxCell id="X_4TxRje71LcUuyWVhWx-23" value="&lt;&lt;interface&gt;&gt;&#xa;IDeviceMonitor" style="swimlane;fontStyle=1;align=center;verticalAlign=top;childLayout=stackLayout;horizontal=1;startSize=70.98722076416016;horizontalStack=0;resizeParent=1;resizeParentMax=0;resizeLast=0;collapsible=0;marginBottom=0;" vertex="1" parent="1">
          <mxGeometry x="1038" y="444" width="210" height="125.98722076416016" as="geometry" />
        </mxCell>
        <mxCell id="X_4TxRje71LcUuyWVhWx-24" style="line;strokeWidth=1;fillColor=none;align=left;verticalAlign=middle;spacingTop=-1;spacingLeft=3;spacingRight=3;rotatable=0;labelPosition=right;points=[];portConstraint=eastwest;strokeColor=inherit;" vertex="1" parent="X_4TxRje71LcUuyWVhWx-23">
          <mxGeometry y="70.98722076416016" width="210" height="8" as="geometry" />
        </mxCell>
        <mxCell id="X_4TxRje71LcUuyWVhWx-25" value="+startMonitoring()" style="text;strokeColor=none;fillColor=none;align=left;verticalAlign=top;spacingLeft=4;spacingRight=4;overflow=hidden;rotatable=0;points=[[0,0.5],[1,0.5]];portConstraint=eastwest;" vertex="1" parent="X_4TxRje71LcUuyWVhWx-23">
          <mxGeometry y="78.98722076416016" width="210" height="47" as="geometry" />
        </mxCell>
        <mxCell id="X_4TxRje71LcUuyWVhWx-26" value="&lt;&lt;interface&gt;&gt;&#xa;ILocalStorage" style="swimlane;fontStyle=1;align=center;verticalAlign=top;childLayout=stackLayout;horizontal=1;startSize=62.23721694946289;horizontalStack=0;resizeParent=1;resizeParentMax=0;resizeLast=0;collapsible=0;marginBottom=0;" vertex="1" parent="1">
          <mxGeometry x="978" y="1149" width="330" height="152.2372169494629" as="geometry" />
        </mxCell>
        <mxCell id="X_4TxRje71LcUuyWVhWx-27" style="line;strokeWidth=1;fillColor=none;align=left;verticalAlign=middle;spacingTop=-1;spacingLeft=3;spacingRight=3;rotatable=0;labelPosition=right;points=[];portConstraint=eastwest;strokeColor=inherit;" vertex="1" parent="X_4TxRje71LcUuyWVhWx-26">
          <mxGeometry y="62.23721694946289" width="330" height="8" as="geometry" />
        </mxCell>
        <mxCell id="X_4TxRje71LcUuyWVhWx-28" value="+saveData(key: String, data: String)" style="text;strokeColor=none;fillColor=none;align=left;verticalAlign=top;spacingLeft=4;spacingRight=4;overflow=hidden;rotatable=0;points=[[0,0.5],[1,0.5]];portConstraint=eastwest;" vertex="1" parent="X_4TxRje71LcUuyWVhWx-26">
          <mxGeometry y="70.23721694946289" width="330" height="41" as="geometry" />
        </mxCell>
        <mxCell id="X_4TxRje71LcUuyWVhWx-29" value="+loadData(key: String)" style="text;strokeColor=none;fillColor=none;align=left;verticalAlign=top;spacingLeft=4;spacingRight=4;overflow=hidden;rotatable=0;points=[[0,0.5],[1,0.5]];portConstraint=eastwest;" vertex="1" parent="X_4TxRje71LcUuyWVhWx-26">
          <mxGeometry y="111.23721694946289" width="330" height="41" as="geometry" />
        </mxCell>
        <mxCell id="X_4TxRje71LcUuyWVhWx-30" value="DeviceFacade" style="swimlane;fontStyle=1;align=center;verticalAlign=top;childLayout=stackLayout;horizontal=1;startSize=39.991477966308594;horizontalStack=0;resizeParent=1;resizeParentMax=0;resizeLast=0;collapsible=0;marginBottom=0;" vertex="1" parent="1">
          <mxGeometry x="329" y="779" width="323" height="167.9914779663086" as="geometry" />
        </mxCell>
        <mxCell id="X_4TxRje71LcUuyWVhWx-31" value="-HomeAssistantAPI haAPI" style="text;strokeColor=none;fillColor=none;align=left;verticalAlign=top;spacingLeft=4;spacingRight=4;overflow=hidden;rotatable=0;points=[[0,0.5],[1,0.5]];portConstraint=eastwest;" vertex="1" parent="X_4TxRje71LcUuyWVhWx-30">
          <mxGeometry y="39.991477966308594" width="323" height="40" as="geometry" />
        </mxCell>
        <mxCell id="X_4TxRje71LcUuyWVhWx-32" style="line;strokeWidth=1;fillColor=none;align=left;verticalAlign=middle;spacingTop=-1;spacingLeft=3;spacingRight=3;rotatable=0;labelPosition=right;points=[];portConstraint=eastwest;strokeColor=inherit;" vertex="1" parent="X_4TxRje71LcUuyWVhWx-30">
          <mxGeometry y="79.9914779663086" width="323" height="8" as="geometry" />
        </mxCell>
        <mxCell id="X_4TxRje71LcUuyWVhWx-33" value="+turnOn(deviceId: String)" style="text;strokeColor=none;fillColor=none;align=left;verticalAlign=top;spacingLeft=4;spacingRight=4;overflow=hidden;rotatable=0;points=[[0,0.5],[1,0.5]];portConstraint=eastwest;" vertex="1" parent="X_4TxRje71LcUuyWVhWx-30">
          <mxGeometry y="87.9914779663086" width="323" height="40" as="geometry" />
        </mxCell>
        <mxCell id="X_4TxRje71LcUuyWVhWx-34" value="+getDeviceStatus(deviceId: String)" style="text;strokeColor=none;fillColor=none;align=left;verticalAlign=top;spacingLeft=4;spacingRight=4;overflow=hidden;rotatable=0;points=[[0,0.5],[1,0.5]];portConstraint=eastwest;" vertex="1" parent="X_4TxRje71LcUuyWVhWx-30">
          <mxGeometry y="127.9914779663086" width="323" height="40" as="geometry" />
        </mxCell>
        <mxCell id="X_4TxRje71LcUuyWVhWx-35" value="HomeAssistantAPI" style="swimlane;fontStyle=1;align=center;verticalAlign=top;childLayout=stackLayout;horizontal=1;startSize=40.56412615094866;horizontalStack=0;resizeParent=1;resizeParentMax=0;resizeLast=0;collapsible=0;marginBottom=0;" vertex="1" parent="1">
          <mxGeometry x="940" y="1431" width="406" height="130.56412615094865" as="geometry" />
        </mxCell>
        <mxCell id="X_4TxRje71LcUuyWVhWx-36" style="line;strokeWidth=1;fillColor=none;align=left;verticalAlign=middle;spacingTop=-1;spacingLeft=3;spacingRight=3;rotatable=0;labelPosition=right;points=[];portConstraint=eastwest;strokeColor=inherit;" vertex="1" parent="X_4TxRje71LcUuyWVhWx-35">
          <mxGeometry y="40.56412615094866" width="406" height="8" as="geometry" />
        </mxCell>
        <mxCell id="X_4TxRje71LcUuyWVhWx-37" value="+callService(domain: String, service: String)" style="text;strokeColor=none;fillColor=none;align=left;verticalAlign=top;spacingLeft=4;spacingRight=4;overflow=hidden;rotatable=0;points=[[0,0.5],[1,0.5]];portConstraint=eastwest;" vertex="1" parent="X_4TxRje71LcUuyWVhWx-35">
          <mxGeometry y="48.56412615094866" width="406" height="41" as="geometry" />
        </mxCell>
        <mxCell id="X_4TxRje71LcUuyWVhWx-38" value="+getState(entityId: String)" style="text;strokeColor=none;fillColor=none;align=left;verticalAlign=top;spacingLeft=4;spacingRight=4;overflow=hidden;rotatable=0;points=[[0,0.5],[1,0.5]];portConstraint=eastwest;" vertex="1" parent="X_4TxRje71LcUuyWVhWx-35">
          <mxGeometry y="89.56412615094865" width="406" height="41" as="geometry" />
        </mxCell>
        <mxCell id="X_4TxRje71LcUuyWVhWx-39" value="&lt;&lt;interface&gt;&gt;&#xa;ICommandQueue" style="swimlane;fontStyle=1;align=center;verticalAlign=top;childLayout=stackLayout;horizontal=1;startSize=62.23721694946289;horizontalStack=0;resizeParent=1;resizeParentMax=0;resizeLast=0;collapsible=0;marginBottom=0;" vertex="1" parent="1">
          <mxGeometry x="963" y="925" width="360" height="152.2372169494629" as="geometry" />
        </mxCell>
        <mxCell id="X_4TxRje71LcUuyWVhWx-40" style="line;strokeWidth=1;fillColor=none;align=left;verticalAlign=middle;spacingTop=-1;spacingLeft=3;spacingRight=3;rotatable=0;labelPosition=right;points=[];portConstraint=eastwest;strokeColor=inherit;" vertex="1" parent="X_4TxRje71LcUuyWVhWx-39">
          <mxGeometry y="62.23721694946289" width="360" height="8" as="geometry" />
        </mxCell>
        <mxCell id="X_4TxRje71LcUuyWVhWx-41" value="+addCommand(command: ICommand)" style="text;strokeColor=none;fillColor=none;align=left;verticalAlign=top;spacingLeft=4;spacingRight=4;overflow=hidden;rotatable=0;points=[[0,0.5],[1,0.5]];portConstraint=eastwest;" vertex="1" parent="X_4TxRje71LcUuyWVhWx-39">
          <mxGeometry y="70.23721694946289" width="360" height="41" as="geometry" />
        </mxCell>
        <mxCell id="X_4TxRje71LcUuyWVhWx-42" value="+pollCommand() : : ICommand" style="text;strokeColor=none;fillColor=none;align=left;verticalAlign=top;spacingLeft=4;spacingRight=4;overflow=hidden;rotatable=0;points=[[0,0.5],[1,0.5]];portConstraint=eastwest;" vertex="1" parent="X_4TxRje71LcUuyWVhWx-39">
          <mxGeometry y="111.23721694946289" width="360" height="41" as="geometry" />
        </mxCell>
        <mxCell id="X_4TxRje71LcUuyWVhWx-43" value="PersistentCommandQueue" style="swimlane;fontStyle=1;align=center;verticalAlign=top;childLayout=stackLayout;horizontal=1;startSize=39.991477966308594;horizontalStack=0;resizeParent=1;resizeParentMax=0;resizeLast=0;collapsible=0;marginBottom=0;" vertex="1" parent="1">
          <mxGeometry x="293" y="1240" width="395" height="167.9914779663086" as="geometry" />
        </mxCell>
        <mxCell id="X_4TxRje71LcUuyWVhWx-44" value="-ILocalStorage localStorage" style="text;strokeColor=none;fillColor=none;align=left;verticalAlign=top;spacingLeft=4;spacingRight=4;overflow=hidden;rotatable=0;points=[[0,0.5],[1,0.5]];portConstraint=eastwest;" vertex="1" parent="X_4TxRje71LcUuyWVhWx-43">
          <mxGeometry y="39.991477966308594" width="395" height="40" as="geometry" />
        </mxCell>
        <mxCell id="X_4TxRje71LcUuyWVhWx-45" value="-Queue internalQueue" style="text;strokeColor=none;fillColor=none;align=left;verticalAlign=top;spacingLeft=4;spacingRight=4;overflow=hidden;rotatable=0;points=[[0,0.5],[1,0.5]];portConstraint=eastwest;" vertex="1" parent="X_4TxRje71LcUuyWVhWx-43">
          <mxGeometry y="79.9914779663086" width="395" height="40" as="geometry" />
        </mxCell>
        <mxCell id="X_4TxRje71LcUuyWVhWx-46" style="line;strokeWidth=1;fillColor=none;align=left;verticalAlign=middle;spacingTop=-1;spacingLeft=3;spacingRight=3;rotatable=0;labelPosition=right;points=[];portConstraint=eastwest;strokeColor=inherit;" vertex="1" parent="X_4TxRje71LcUuyWVhWx-43">
          <mxGeometry y="119.9914779663086" width="395" height="8" as="geometry" />
        </mxCell>
        <mxCell id="X_4TxRje71LcUuyWVhWx-47" value="+addCommand(command: ICommand)" style="text;strokeColor=none;fillColor=none;align=left;verticalAlign=top;spacingLeft=4;spacingRight=4;overflow=hidden;rotatable=0;points=[[0,0.5],[1,0.5]];portConstraint=eastwest;" vertex="1" parent="X_4TxRje71LcUuyWVhWx-43">
          <mxGeometry y="127.9914779663086" width="395" height="40" as="geometry" />
        </mxCell>
        <mxCell id="X_4TxRje71LcUuyWVhWx-48" value="&lt;&lt;interface&gt;&gt;&#xa;ICommand" style="swimlane;fontStyle=1;align=center;verticalAlign=top;childLayout=stackLayout;horizontal=1;startSize=62.23721694946289;horizontalStack=0;resizeParent=1;resizeParentMax=0;resizeLast=0;collapsible=0;marginBottom=0;" vertex="1" parent="1">
          <mxGeometry x="1512" y="925" width="343" height="152.2372169494629" as="geometry" />
        </mxCell>
        <mxCell id="X_4TxRje71LcUuyWVhWx-49" style="line;strokeWidth=1;fillColor=none;align=left;verticalAlign=middle;spacingTop=-1;spacingLeft=3;spacingRight=3;rotatable=0;labelPosition=right;points=[];portConstraint=eastwest;strokeColor=inherit;" vertex="1" parent="X_4TxRje71LcUuyWVhWx-48">
          <mxGeometry y="62.23721694946289" width="343" height="8" as="geometry" />
        </mxCell>
        <mxCell id="X_4TxRje71LcUuyWVhWx-50" value="+execute(context: GatewayController)" style="text;strokeColor=none;fillColor=none;align=left;verticalAlign=top;spacingLeft=4;spacingRight=4;overflow=hidden;rotatable=0;points=[[0,0.5],[1,0.5]];portConstraint=eastwest;" vertex="1" parent="X_4TxRje71LcUuyWVhWx-48">
          <mxGeometry y="70.23721694946289" width="343" height="41" as="geometry" />
        </mxCell>
        <mxCell id="X_4TxRje71LcUuyWVhWx-51" value="+serialize() : : String" style="text;strokeColor=none;fillColor=none;align=left;verticalAlign=top;spacingLeft=4;spacingRight=4;overflow=hidden;rotatable=0;points=[[0,0.5],[1,0.5]];portConstraint=eastwest;" vertex="1" parent="X_4TxRje71LcUuyWVhWx-48">
          <mxGeometry y="111.23721694946289" width="343" height="41" as="geometry" />
        </mxCell>
        <mxCell id="X_4TxRje71LcUuyWVhWx-52" value="DeviceControlCommand" style="swimlane;fontStyle=1;align=center;verticalAlign=top;childLayout=stackLayout;horizontal=1;startSize=39.991477966308594;horizontalStack=0;resizeParent=1;resizeParentMax=0;resizeLast=0;collapsible=0;marginBottom=0;" vertex="1" parent="1">
          <mxGeometry x="1993" y="977" width="391" height="167.9914779663086" as="geometry" />
        </mxCell>
        <mxCell id="X_4TxRje71LcUuyWVhWx-53" value="-String deviceId" style="text;strokeColor=none;fillColor=none;align=left;verticalAlign=top;spacingLeft=4;spacingRight=4;overflow=hidden;rotatable=0;points=[[0,0.5],[1,0.5]];portConstraint=eastwest;" vertex="1" parent="X_4TxRje71LcUuyWVhWx-52">
          <mxGeometry y="39.991477966308594" width="391" height="40" as="geometry" />
        </mxCell>
        <mxCell id="X_4TxRje71LcUuyWVhWx-54" value="-String action" style="text;strokeColor=none;fillColor=none;align=left;verticalAlign=top;spacingLeft=4;spacingRight=4;overflow=hidden;rotatable=0;points=[[0,0.5],[1,0.5]];portConstraint=eastwest;" vertex="1" parent="X_4TxRje71LcUuyWVhWx-52">
          <mxGeometry y="79.9914779663086" width="391" height="40" as="geometry" />
        </mxCell>
        <mxCell id="X_4TxRje71LcUuyWVhWx-55" style="line;strokeWidth=1;fillColor=none;align=left;verticalAlign=middle;spacingTop=-1;spacingLeft=3;spacingRight=3;rotatable=0;labelPosition=right;points=[];portConstraint=eastwest;strokeColor=inherit;" vertex="1" parent="X_4TxRje71LcUuyWVhWx-52">
          <mxGeometry y="119.9914779663086" width="391" height="8" as="geometry" />
        </mxCell>
        <mxCell id="X_4TxRje71LcUuyWVhWx-56" value="+execute(context: GatewayController)" style="text;strokeColor=none;fillColor=none;align=left;verticalAlign=top;spacingLeft=4;spacingRight=4;overflow=hidden;rotatable=0;points=[[0,0.5],[1,0.5]];portConstraint=eastwest;" vertex="1" parent="X_4TxRje71LcUuyWVhWx-52">
          <mxGeometry y="127.9914779663086" width="391" height="40" as="geometry" />
        </mxCell>
        <mxCell id="X_4TxRje71LcUuyWVhWx-57" value="ReportStatusCommand" style="swimlane;fontStyle=1;align=center;verticalAlign=top;childLayout=stackLayout;horizontal=1;startSize=39.991477966308594;horizontalStack=0;resizeParent=1;resizeParentMax=0;resizeLast=0;collapsible=0;marginBottom=0;" vertex="1" parent="1">
          <mxGeometry x="1995" y="1195" width="387" height="167.9914779663086" as="geometry" />
        </mxCell>
        <mxCell id="X_4TxRje71LcUuyWVhWx-58" value="-String deviceId" style="text;strokeColor=none;fillColor=none;align=left;verticalAlign=top;spacingLeft=4;spacingRight=4;overflow=hidden;rotatable=0;points=[[0,0.5],[1,0.5]];portConstraint=eastwest;" vertex="1" parent="X_4TxRje71LcUuyWVhWx-57">
          <mxGeometry y="39.991477966308594" width="387" height="40" as="geometry" />
        </mxCell>
        <mxCell id="X_4TxRje71LcUuyWVhWx-59" value="-String status" style="text;strokeColor=none;fillColor=none;align=left;verticalAlign=top;spacingLeft=4;spacingRight=4;overflow=hidden;rotatable=0;points=[[0,0.5],[1,0.5]];portConstraint=eastwest;" vertex="1" parent="X_4TxRje71LcUuyWVhWx-57">
          <mxGeometry y="79.9914779663086" width="387" height="40" as="geometry" />
        </mxCell>
        <mxCell id="X_4TxRje71LcUuyWVhWx-60" style="line;strokeWidth=1;fillColor=none;align=left;verticalAlign=middle;spacingTop=-1;spacingLeft=3;spacingRight=3;rotatable=0;labelPosition=right;points=[];portConstraint=eastwest;strokeColor=inherit;" vertex="1" parent="X_4TxRje71LcUuyWVhWx-57">
          <mxGeometry y="119.9914779663086" width="387" height="8" as="geometry" />
        </mxCell>
        <mxCell id="X_4TxRje71LcUuyWVhWx-61" value="+execute(context: GatewayController)" style="text;strokeColor=none;fillColor=none;align=left;verticalAlign=top;spacingLeft=4;spacingRight=4;overflow=hidden;rotatable=0;points=[[0,0.5],[1,0.5]];portConstraint=eastwest;" vertex="1" parent="X_4TxRje71LcUuyWVhWx-57">
          <mxGeometry y="127.9914779663086" width="387" height="40" as="geometry" />
        </mxCell>
        <mxCell id="X_4TxRje71LcUuyWVhWx-62" value="FilePersistentStorage" style="swimlane;fontStyle=1;align=center;verticalAlign=top;childLayout=stackLayout;horizontal=1;startSize=39.991477966308594;horizontalStack=0;resizeParent=1;resizeParentMax=0;resizeLast=0;collapsible=0;marginBottom=0;" vertex="1" parent="1">
          <mxGeometry x="310" y="997" width="360" height="167.9914779663086" as="geometry" />
        </mxCell>
        <mxCell id="X_4TxRje71LcUuyWVhWx-63" value="-String filePath" style="text;strokeColor=none;fillColor=none;align=left;verticalAlign=top;spacingLeft=4;spacingRight=4;overflow=hidden;rotatable=0;points=[[0,0.5],[1,0.5]];portConstraint=eastwest;" vertex="1" parent="X_4TxRje71LcUuyWVhWx-62">
          <mxGeometry y="39.991477966308594" width="360" height="40" as="geometry" />
        </mxCell>
        <mxCell id="X_4TxRje71LcUuyWVhWx-64" style="line;strokeWidth=1;fillColor=none;align=left;verticalAlign=middle;spacingTop=-1;spacingLeft=3;spacingRight=3;rotatable=0;labelPosition=right;points=[];portConstraint=eastwest;strokeColor=inherit;" vertex="1" parent="X_4TxRje71LcUuyWVhWx-62">
          <mxGeometry y="79.9914779663086" width="360" height="8" as="geometry" />
        </mxCell>
        <mxCell id="X_4TxRje71LcUuyWVhWx-65" value="+saveData(key: String, data: String)" style="text;strokeColor=none;fillColor=none;align=left;verticalAlign=top;spacingLeft=4;spacingRight=4;overflow=hidden;rotatable=0;points=[[0,0.5],[1,0.5]];portConstraint=eastwest;" vertex="1" parent="X_4TxRje71LcUuyWVhWx-62">
          <mxGeometry y="87.9914779663086" width="360" height="40" as="geometry" />
        </mxCell>
        <mxCell id="X_4TxRje71LcUuyWVhWx-66" value="+loadData(key: String)" style="text;strokeColor=none;fillColor=none;align=left;verticalAlign=top;spacingLeft=4;spacingRight=4;overflow=hidden;rotatable=0;points=[[0,0.5],[1,0.5]];portConstraint=eastwest;" vertex="1" parent="X_4TxRje71LcUuyWVhWx-62">
          <mxGeometry y="127.9914779663086" width="360" height="40" as="geometry" />
        </mxCell>
        <mxCell id="X_4TxRje71LcUuyWVhWx-67" value="Concrete Participant" style="align=left;spacingLeft=4;" vertex="1" parent="1">
          <mxGeometry x="20" y="845" width="160" height="36" as="geometry" />
        </mxCell>
        <mxCell id="X_4TxRje71LcUuyWVhWx-68" value="Concrete Participant" style="align=left;spacingLeft=4;" vertex="1" parent="1">
          <mxGeometry x="410" y="1536" width="160" height="36" as="geometry" />
        </mxCell>
        <mxCell id="X_4TxRje71LcUuyWVhWx-69" value="Concrete Participant" style="align=left;spacingLeft=4;" vertex="1" parent="1">
          <mxGeometry x="20" y="1306" width="160" height="36" as="geometry" />
        </mxCell>
        <mxCell id="X_4TxRje71LcUuyWVhWx-70" value="Concrete Participant" style="align=left;spacingLeft=4;" vertex="1" parent="1">
          <mxGeometry x="1603" y="1197" width="160" height="36" as="geometry" />
        </mxCell>
        <mxCell id="X_4TxRje71LcUuyWVhWx-71" value="Concrete Participant" style="align=left;spacingLeft=4;" vertex="1" parent="1">
          <mxGeometry x="1603" y="1349" width="160" height="36" as="geometry" />
        </mxCell>
        <mxCell id="X_4TxRje71LcUuyWVhWx-72" value="Concrete Participant" style="align=left;spacingLeft=4;" vertex="1" parent="1">
          <mxGeometry x="20" y="1063" width="160" height="36" as="geometry" />
        </mxCell>
        <mxCell id="X_4TxRje71LcUuyWVhWx-73" value="" style="curved=1;dashed=1;dashPattern=2 3;startArrow=none;endArrow=none;exitX=1;exitY=0.51;entryX=0;entryY=0.5;rounded=0;" edge="1" parent="1" source="X_4TxRje71LcUuyWVhWx-67" target="X_4TxRje71LcUuyWVhWx-30">
          <mxGeometry relative="1" as="geometry">
            <Array as="points" />
          </mxGeometry>
        </mxCell>
        <mxCell id="X_4TxRje71LcUuyWVhWx-74" value="" style="curved=1;dashed=1;dashPattern=2 3;startArrow=none;endArrow=none;exitX=1;exitY=0.51;entryX=0;entryY=0.7;rounded=0;" edge="1" parent="1" source="X_4TxRje71LcUuyWVhWx-68" target="X_4TxRje71LcUuyWVhWx-35">
          <mxGeometry relative="1" as="geometry">
            <Array as="points">
              <mxPoint x="818" y="1554" />
            </Array>
          </mxGeometry>
        </mxCell>
        <mxCell id="X_4TxRje71LcUuyWVhWx-75" value="" style="curved=1;dashed=1;dashPattern=2 3;startArrow=none;endArrow=none;exitX=1;exitY=0.5;entryX=0;entryY=0.5;rounded=0;" edge="1" parent="1" source="X_4TxRje71LcUuyWVhWx-69" target="X_4TxRje71LcUuyWVhWx-43">
          <mxGeometry relative="1" as="geometry">
            <Array as="points" />
          </mxGeometry>
        </mxCell>
        <mxCell id="X_4TxRje71LcUuyWVhWx-76" value="" style="curved=1;dashed=1;dashPattern=2 3;startArrow=none;endArrow=none;exitX=1;exitY=0.49;entryX=0.13;entryY=1;rounded=0;" edge="1" parent="1" source="X_4TxRje71LcUuyWVhWx-70" target="X_4TxRje71LcUuyWVhWx-52">
          <mxGeometry relative="1" as="geometry">
            <Array as="points">
              <mxPoint x="1924" y="1215" />
            </Array>
          </mxGeometry>
        </mxCell>
        <mxCell id="X_4TxRje71LcUuyWVhWx-77" value="" style="curved=1;dashed=1;dashPattern=2 3;startArrow=none;endArrow=none;exitX=1;exitY=0.49;entryX=0;entryY=0.88;rounded=0;" edge="1" parent="1" source="X_4TxRje71LcUuyWVhWx-71" target="X_4TxRje71LcUuyWVhWx-57">
          <mxGeometry relative="1" as="geometry">
            <Array as="points">
              <mxPoint x="1924" y="1367" />
            </Array>
          </mxGeometry>
        </mxCell>
        <mxCell id="X_4TxRje71LcUuyWVhWx-78" value="" style="curved=1;dashed=1;dashPattern=2 3;startArrow=none;endArrow=none;exitX=1;exitY=0.51;entryX=0;entryY=0.5;rounded=0;" edge="1" parent="1" source="X_4TxRje71LcUuyWVhWx-72" target="X_4TxRje71LcUuyWVhWx-62">
          <mxGeometry relative="1" as="geometry">
            <Array as="points" />
          </mxGeometry>
        </mxCell>
        <mxCell id="X_4TxRje71LcUuyWVhWx-79" value="implements" style="curved=1;startArrow=none;endArrow=block;endSize=16;endFill=0;exitX=0.71;exitY=0;entryX=0;entryY=0.5;rounded=0;" edge="1" parent="1" source="X_4TxRje71LcUuyWVhWx-1" target="X_4TxRje71LcUuyWVhWx-12">
          <mxGeometry relative="1" as="geometry">
            <Array as="points">
              <mxPoint x="818" y="95" />
            </Array>
          </mxGeometry>
        </mxCell>
        <mxCell id="X_4TxRje71LcUuyWVhWx-80" value="uses" style="curved=1;startArrow=none;endArrow=diamondThin;endSize=14;endFill=0;exitX=0.91;exitY=0;entryX=0.28;entryY=0;rounded=0;" edge="1" parent="1" source="X_4TxRje71LcUuyWVhWx-1" target="X_4TxRje71LcUuyWVhWx-15">
          <mxGeometry relative="1" as="geometry">
            <Array as="points">
              <mxPoint x="818" y="334" />
            </Array>
          </mxGeometry>
        </mxCell>
        <mxCell id="X_4TxRje71LcUuyWVhWx-81" value="uses" style="curved=1;startArrow=none;endArrow=diamondThin;endSize=14;endFill=0;exitX=1;exitY=0;entryX=0;entryY=0.72;rounded=0;" edge="1" parent="1" source="X_4TxRje71LcUuyWVhWx-1" target="X_4TxRje71LcUuyWVhWx-19">
          <mxGeometry relative="1" as="geometry">
            <Array as="points">
              <mxPoint x="818" y="377" />
            </Array>
          </mxGeometry>
        </mxCell>
        <mxCell id="X_4TxRje71LcUuyWVhWx-82" value="uses" style="curved=1;startArrow=none;endArrow=diamondThin;endSize=14;endFill=0;exitX=1;exitY=0.36;entryX=0;entryY=0.5;rounded=0;" edge="1" parent="1" source="X_4TxRje71LcUuyWVhWx-1" target="X_4TxRje71LcUuyWVhWx-23">
          <mxGeometry relative="1" as="geometry">
            <Array as="points">
              <mxPoint x="818" y="519" />
            </Array>
          </mxGeometry>
        </mxCell>
        <mxCell id="X_4TxRje71LcUuyWVhWx-83" value="uses" style="curved=1;startArrow=none;endArrow=diamondThin;endSize=14;endFill=0;exitX=1;exitY=0.57;entryX=0.36;entryY=0;rounded=0;" edge="1" parent="1" source="X_4TxRje71LcUuyWVhWx-1" target="X_4TxRje71LcUuyWVhWx-26">
          <mxGeometry relative="1" as="geometry">
            <Array as="points">
              <mxPoint x="818" y="603" />
            </Array>
          </mxGeometry>
        </mxCell>
        <mxCell id="X_4TxRje71LcUuyWVhWx-84" value="uses" style="curved=1;startArrow=none;endArrow=diamondThin;endSize=14;endFill=0;exitX=1;exitY=0.71;entryX=0.28;entryY=0;rounded=0;" edge="1" parent="1" source="X_4TxRje71LcUuyWVhWx-1" target="X_4TxRje71LcUuyWVhWx-39">
          <mxGeometry relative="1" as="geometry">
            <Array as="points">
              <mxPoint x="818" y="658" />
            </Array>
          </mxGeometry>
        </mxCell>
        <mxCell id="X_4TxRje71LcUuyWVhWx-85" value="implements" style="curved=1;startArrow=none;endArrow=block;endSize=16;endFill=0;exitX=1;exitY=0.12;entryX=0;entryY=0.5;rounded=0;" edge="1" parent="1" source="X_4TxRje71LcUuyWVhWx-30" target="X_4TxRje71LcUuyWVhWx-15">
          <mxGeometry relative="1" as="geometry">
            <Array as="points">
              <mxPoint x="818" y="731" />
            </Array>
          </mxGeometry>
        </mxCell>
        <mxCell id="X_4TxRje71LcUuyWVhWx-86" value="aggregates" style="curved=1;startArrow=none;endArrow=diamondThin;endSize=14;endFill=0;exitX=1;exitY=0.64;entryX=0.4;entryY=0;rounded=0;" edge="1" parent="1" source="X_4TxRje71LcUuyWVhWx-30" target="X_4TxRje71LcUuyWVhWx-35">
          <mxGeometry relative="1" as="geometry">
            <Array as="points">
              <mxPoint x="818" y="912" />
            </Array>
          </mxGeometry>
        </mxCell>
        <mxCell id="X_4TxRje71LcUuyWVhWx-87" value="implements" style="curved=1;startArrow=none;endArrow=block;endSize=16;endFill=0;exitX=0.96;exitY=0;entryX=0.01;entryY=1;rounded=0;" edge="1" parent="1" source="X_4TxRje71LcUuyWVhWx-43" target="X_4TxRje71LcUuyWVhWx-39">
          <mxGeometry relative="1" as="geometry">
            <Array as="points">
              <mxPoint x="818" y="1173" />
            </Array>
          </mxGeometry>
        </mxCell>
        <mxCell id="X_4TxRje71LcUuyWVhWx-88" value="aggregates" style="curved=1;startArrow=none;endArrow=diamondThin;endSize=14;endFill=0;exitX=1;exitY=1;entryX=0.12;entryY=1;rounded=0;" edge="1" parent="1" source="X_4TxRje71LcUuyWVhWx-43" target="X_4TxRje71LcUuyWVhWx-26">
          <mxGeometry relative="1" as="geometry">
            <Array as="points">
              <mxPoint x="818" y="1463" />
            </Array>
          </mxGeometry>
        </mxCell>
        <mxCell id="X_4TxRje71LcUuyWVhWx-89" value="contains" style="curved=1;startArrow=none;endArrow=diamondThin;endSize=14;endFill=0;exitX=1;exitY=0.5;entryX=0;entryY=0.5;rounded=0;" edge="1" parent="1" source="X_4TxRje71LcUuyWVhWx-39" target="X_4TxRje71LcUuyWVhWx-48">
          <mxGeometry relative="1" as="geometry">
            <Array as="points" />
          </mxGeometry>
        </mxCell>
        <mxCell id="X_4TxRje71LcUuyWVhWx-90" value="implements" style="curved=1;dashed=1;startArrow=block;startSize=16;startFill=0;endArrow=none;exitX=1;exitY=0.41;entryX=0;entryY=0.19;rounded=0;" edge="1" parent="1" source="X_4TxRje71LcUuyWVhWx-48" target="X_4TxRje71LcUuyWVhWx-52">
          <mxGeometry relative="1" as="geometry">
            <Array as="points">
              <mxPoint x="1924" y="991" />
            </Array>
          </mxGeometry>
        </mxCell>
        <mxCell id="X_4TxRje71LcUuyWVhWx-91" value="implements" style="curved=1;dashed=1;startArrow=block;startSize=16;startFill=0;endArrow=none;exitX=1;exitY=0.95;entryX=0.14;entryY=0;rounded=0;" edge="1" parent="1" source="X_4TxRje71LcUuyWVhWx-48" target="X_4TxRje71LcUuyWVhWx-57">
          <mxGeometry relative="1" as="geometry">
            <Array as="points">
              <mxPoint x="1924" y="1121" />
            </Array>
          </mxGeometry>
        </mxCell>
        <mxCell id="X_4TxRje71LcUuyWVhWx-92" value="implements" style="curved=1;startArrow=none;endArrow=block;endSize=16;endFill=0;exitX=1;exitY=0.5;entryX=0;entryY=0.05;rounded=0;" edge="1" parent="1" source="X_4TxRje71LcUuyWVhWx-62" target="X_4TxRje71LcUuyWVhWx-26">
          <mxGeometry relative="1" as="geometry">
            <Array as="points">
              <mxPoint x="818" y="1081" />
            </Array>
          </mxGeometry>
        </mxCell>
      </root>
    </mxGraphModel>
  </diagram>
  <diagram id="FRfsIEpEB2cSpHYhdSK4" name="페이지-3">
    <mxGraphModel dx="2619" dy="1431" grid="1" gridSize="10" guides="1" tooltips="1" connect="1" arrows="1" fold="1" page="1" pageScale="1" pageWidth="827" pageHeight="1169" math="0" shadow="0">
      <root>
        <mxCell id="0" />
        <mxCell id="1" parent="0" />
        <mxCell id="dJxrg4c0x5EPtcGyTOzi-1" value="GatewayController" style="swimlane;fontStyle=1;align=center;verticalAlign=top;childLayout=stackLayout;horizontal=1;startSize=29.324808756510418;horizontalStack=0;resizeParent=1;resizeParentMax=0;resizeLast=0;collapsible=0;marginBottom=0;" vertex="1" parent="1">
          <mxGeometry x="321" y="576" width="519" height="356.32480875651044" as="geometry" />
        </mxCell>
        <mxCell id="dJxrg4c0x5EPtcGyTOzi-2" value="-ICommandQueue commandQueue" style="text;strokeColor=none;fillColor=none;align=left;verticalAlign=top;spacingLeft=4;spacingRight=4;overflow=hidden;rotatable=0;points=[[0,0.5],[1,0.5]];portConstraint=eastwest;" vertex="1" parent="dJxrg4c0x5EPtcGyTOzi-1">
          <mxGeometry y="29.324808756510418" width="519" height="29" as="geometry" />
        </mxCell>
        <mxCell id="dJxrg4c0x5EPtcGyTOzi-3" value="-IDeviceControl deviceControl" style="text;strokeColor=none;fillColor=none;align=left;verticalAlign=top;spacingLeft=4;spacingRight=4;overflow=hidden;rotatable=0;points=[[0,0.5],[1,0.5]];portConstraint=eastwest;" vertex="1" parent="dJxrg4c0x5EPtcGyTOzi-1">
          <mxGeometry y="58.32480875651042" width="519" height="29" as="geometry" />
        </mxCell>
        <mxCell id="dJxrg4c0x5EPtcGyTOzi-4" value="-IMQTTBroker mqttBroker" style="text;strokeColor=none;fillColor=none;align=left;verticalAlign=top;spacingLeft=4;spacingRight=4;overflow=hidden;rotatable=0;points=[[0,0.5],[1,0.5]];portConstraint=eastwest;" vertex="1" parent="dJxrg4c0x5EPtcGyTOzi-1">
          <mxGeometry y="87.32480875651042" width="519" height="29" as="geometry" />
        </mxCell>
        <mxCell id="dJxrg4c0x5EPtcGyTOzi-5" value="-IDeviceMonitor deviceMonitor" style="text;strokeColor=none;fillColor=none;align=left;verticalAlign=top;spacingLeft=4;spacingRight=4;overflow=hidden;rotatable=0;points=[[0,0.5],[1,0.5]];portConstraint=eastwest;" vertex="1" parent="dJxrg4c0x5EPtcGyTOzi-1">
          <mxGeometry y="116.32480875651042" width="519" height="29" as="geometry" />
        </mxCell>
        <mxCell id="dJxrg4c0x5EPtcGyTOzi-6" value="-ILocalStorage localStorage" style="text;strokeColor=none;fillColor=none;align=left;verticalAlign=top;spacingLeft=4;spacingRight=4;overflow=hidden;rotatable=0;points=[[0,0.5],[1,0.5]];portConstraint=eastwest;" vertex="1" parent="dJxrg4c0x5EPtcGyTOzi-1">
          <mxGeometry y="145.32480875651044" width="519" height="29" as="geometry" />
        </mxCell>
        <mxCell id="dJxrg4c0x5EPtcGyTOzi-7" style="line;strokeWidth=1;fillColor=none;align=left;verticalAlign=middle;spacingTop=-1;spacingLeft=3;spacingRight=3;rotatable=0;labelPosition=right;points=[];portConstraint=eastwest;strokeColor=inherit;" vertex="1" parent="dJxrg4c0x5EPtcGyTOzi-1">
          <mxGeometry y="174.32480875651044" width="519" height="8" as="geometry" />
        </mxCell>
        <mxCell id="dJxrg4c0x5EPtcGyTOzi-8" value="+start()" style="text;strokeColor=none;fillColor=none;align=left;verticalAlign=top;spacingLeft=4;spacingRight=4;overflow=hidden;rotatable=0;points=[[0,0.5],[1,0.5]];portConstraint=eastwest;" vertex="1" parent="dJxrg4c0x5EPtcGyTOzi-1">
          <mxGeometry y="182.32480875651044" width="519" height="29" as="geometry" />
        </mxCell>
        <mxCell id="dJxrg4c0x5EPtcGyTOzi-9" value="+stop()" style="text;strokeColor=none;fillColor=none;align=left;verticalAlign=top;spacingLeft=4;spacingRight=4;overflow=hidden;rotatable=0;points=[[0,0.5],[1,0.5]];portConstraint=eastwest;" vertex="1" parent="dJxrg4c0x5EPtcGyTOzi-1">
          <mxGeometry y="211.32480875651044" width="519" height="29" as="geometry" />
        </mxCell>
        <mxCell id="dJxrg4c0x5EPtcGyTOzi-10" value="+processCloudCommand(command: String, payload: String)" style="text;strokeColor=none;fillColor=none;align=left;verticalAlign=top;spacingLeft=4;spacingRight=4;overflow=hidden;rotatable=0;points=[[0,0.5],[1,0.5]];portConstraint=eastwest;" vertex="1" parent="dJxrg4c0x5EPtcGyTOzi-1">
          <mxGeometry y="240.32480875651044" width="519" height="29" as="geometry" />
        </mxCell>
        <mxCell id="dJxrg4c0x5EPtcGyTOzi-11" value="+onDeviceStatusChanged(deviceId: String, status: String)" style="text;strokeColor=none;fillColor=none;align=left;verticalAlign=top;spacingLeft=4;spacingRight=4;overflow=hidden;rotatable=0;points=[[0,0.5],[1,0.5]];portConstraint=eastwest;" vertex="1" parent="dJxrg4c0x5EPtcGyTOzi-1">
          <mxGeometry y="269.32480875651044" width="519" height="29" as="geometry" />
        </mxCell>
        <mxCell id="dJxrg4c0x5EPtcGyTOzi-12" value="+onNetworkConnected()" style="text;strokeColor=none;fillColor=none;align=left;verticalAlign=top;spacingLeft=4;spacingRight=4;overflow=hidden;rotatable=0;points=[[0,0.5],[1,0.5]];portConstraint=eastwest;" vertex="1" parent="dJxrg4c0x5EPtcGyTOzi-1">
          <mxGeometry y="298.32480875651044" width="519" height="29" as="geometry" />
        </mxCell>
        <mxCell id="dJxrg4c0x5EPtcGyTOzi-13" value="+onNetworkDisconnected()" style="text;strokeColor=none;fillColor=none;align=left;verticalAlign=top;spacingLeft=4;spacingRight=4;overflow=hidden;rotatable=0;points=[[0,0.5],[1,0.5]];portConstraint=eastwest;" vertex="1" parent="dJxrg4c0x5EPtcGyTOzi-1">
          <mxGeometry y="327.32480875651044" width="519" height="29" as="geometry" />
        </mxCell>
        <mxCell id="dJxrg4c0x5EPtcGyTOzi-14" value="&lt;&lt;interface&gt;&gt;&#xa;IGatewayService" style="swimlane;fontStyle=1;align=center;verticalAlign=top;childLayout=stackLayout;horizontal=1;startSize=70.98722076416016;horizontalStack=0;resizeParent=1;resizeParentMax=0;resizeLast=0;collapsible=0;marginBottom=0;" vertex="1" parent="1">
          <mxGeometry x="1104" y="20" width="511" height="125.98722076416016" as="geometry" />
        </mxCell>
        <mxCell id="dJxrg4c0x5EPtcGyTOzi-15" style="line;strokeWidth=1;fillColor=none;align=left;verticalAlign=middle;spacingTop=-1;spacingLeft=3;spacingRight=3;rotatable=0;labelPosition=right;points=[];portConstraint=eastwest;strokeColor=inherit;" vertex="1" parent="dJxrg4c0x5EPtcGyTOzi-14">
          <mxGeometry y="70.98722076416016" width="511" height="8" as="geometry" />
        </mxCell>
        <mxCell id="dJxrg4c0x5EPtcGyTOzi-16" value="+processCloudCommand(command: String, payload: String)" style="text;strokeColor=none;fillColor=none;align=left;verticalAlign=top;spacingLeft=4;spacingRight=4;overflow=hidden;rotatable=0;points=[[0,0.5],[1,0.5]];portConstraint=eastwest;" vertex="1" parent="dJxrg4c0x5EPtcGyTOzi-14">
          <mxGeometry y="78.98722076416016" width="511" height="47" as="geometry" />
        </mxCell>
        <mxCell id="dJxrg4c0x5EPtcGyTOzi-17" value="&lt;&lt;interface&gt;&gt;&#xa;IDeviceControl" style="swimlane;fontStyle=1;align=center;verticalAlign=top;childLayout=stackLayout;horizontal=1;startSize=53.48721694946289;horizontalStack=0;resizeParent=1;resizeParentMax=0;resizeLast=0;collapsible=0;marginBottom=0;" vertex="1" parent="1">
          <mxGeometry x="1153" y="730" width="384" height="205.4872169494629" as="geometry" />
        </mxCell>
        <mxCell id="dJxrg4c0x5EPtcGyTOzi-18" style="line;strokeWidth=1;fillColor=none;align=left;verticalAlign=middle;spacingTop=-1;spacingLeft=3;spacingRight=3;rotatable=0;labelPosition=right;points=[];portConstraint=eastwest;strokeColor=inherit;" vertex="1" parent="dJxrg4c0x5EPtcGyTOzi-17">
          <mxGeometry y="53.48721694946289" width="384" height="8" as="geometry" />
        </mxCell>
        <mxCell id="dJxrg4c0x5EPtcGyTOzi-19" value="+turnOn(deviceId: String)" style="text;strokeColor=none;fillColor=none;align=left;verticalAlign=top;spacingLeft=4;spacingRight=4;overflow=hidden;rotatable=0;points=[[0,0.5],[1,0.5]];portConstraint=eastwest;" vertex="1" parent="dJxrg4c0x5EPtcGyTOzi-17">
          <mxGeometry y="61.48721694946289" width="384" height="36" as="geometry" />
        </mxCell>
        <mxCell id="dJxrg4c0x5EPtcGyTOzi-20" value="+turnOff(deviceId: String)" style="text;strokeColor=none;fillColor=none;align=left;verticalAlign=top;spacingLeft=4;spacingRight=4;overflow=hidden;rotatable=0;points=[[0,0.5],[1,0.5]];portConstraint=eastwest;" vertex="1" parent="dJxrg4c0x5EPtcGyTOzi-17">
          <mxGeometry y="97.48721694946289" width="384" height="36" as="geometry" />
        </mxCell>
        <mxCell id="dJxrg4c0x5EPtcGyTOzi-21" value="+getPowerUsage(deviceId: String) : : float" style="text;strokeColor=none;fillColor=none;align=left;verticalAlign=top;spacingLeft=4;spacingRight=4;overflow=hidden;rotatable=0;points=[[0,0.5],[1,0.5]];portConstraint=eastwest;" vertex="1" parent="dJxrg4c0x5EPtcGyTOzi-17">
          <mxGeometry y="133.4872169494629" width="384" height="36" as="geometry" />
        </mxCell>
        <mxCell id="dJxrg4c0x5EPtcGyTOzi-22" value="+getPowerState(deviceId: String) : : String" style="text;strokeColor=none;fillColor=none;align=left;verticalAlign=top;spacingLeft=4;spacingRight=4;overflow=hidden;rotatable=0;points=[[0,0.5],[1,0.5]];portConstraint=eastwest;" vertex="1" parent="dJxrg4c0x5EPtcGyTOzi-17">
          <mxGeometry y="169.4872169494629" width="384" height="36" as="geometry" />
        </mxCell>
        <mxCell id="dJxrg4c0x5EPtcGyTOzi-23" value="&lt;&lt;interface&gt;&gt;&#xa;IMQTTBroker" style="swimlane;fontStyle=1;align=center;verticalAlign=top;childLayout=stackLayout;horizontal=1;startSize=56.987214660644526;horizontalStack=0;resizeParent=1;resizeParentMax=0;resizeLast=0;collapsible=0;marginBottom=0;" vertex="1" parent="1">
          <mxGeometry x="1181" y="220" width="356" height="178.98721466064453" as="geometry" />
        </mxCell>
        <mxCell id="dJxrg4c0x5EPtcGyTOzi-24" style="line;strokeWidth=1;fillColor=none;align=left;verticalAlign=middle;spacingTop=-1;spacingLeft=3;spacingRight=3;rotatable=0;labelPosition=right;points=[];portConstraint=eastwest;strokeColor=inherit;" vertex="1" parent="dJxrg4c0x5EPtcGyTOzi-23">
          <mxGeometry y="56.987214660644526" width="356" height="8" as="geometry" />
        </mxCell>
        <mxCell id="dJxrg4c0x5EPtcGyTOzi-25" value="+publish(topic: String, message: String)" style="text;strokeColor=none;fillColor=none;align=left;verticalAlign=top;spacingLeft=4;spacingRight=4;overflow=hidden;rotatable=0;points=[[0,0.5],[1,0.5]];portConstraint=eastwest;" vertex="1" parent="dJxrg4c0x5EPtcGyTOzi-23">
          <mxGeometry y="64.98721466064453" width="356" height="38" as="geometry" />
        </mxCell>
        <mxCell id="dJxrg4c0x5EPtcGyTOzi-26" value="+subscribe(topic: String)" style="text;strokeColor=none;fillColor=none;align=left;verticalAlign=top;spacingLeft=4;spacingRight=4;overflow=hidden;rotatable=0;points=[[0,0.5],[1,0.5]];portConstraint=eastwest;" vertex="1" parent="dJxrg4c0x5EPtcGyTOzi-23">
          <mxGeometry y="102.98721466064453" width="356" height="38" as="geometry" />
        </mxCell>
        <mxCell id="dJxrg4c0x5EPtcGyTOzi-27" value="+onMessageReceived(callback)" style="text;strokeColor=none;fillColor=none;align=left;verticalAlign=top;spacingLeft=4;spacingRight=4;overflow=hidden;rotatable=0;points=[[0,0.5],[1,0.5]];portConstraint=eastwest;" vertex="1" parent="dJxrg4c0x5EPtcGyTOzi-23">
          <mxGeometry y="140.98721466064453" width="356" height="38" as="geometry" />
        </mxCell>
        <mxCell id="dJxrg4c0x5EPtcGyTOzi-28" value="&lt;&lt;interface&gt;&gt;&#xa;IDeviceMonitor" style="swimlane;fontStyle=1;align=center;verticalAlign=top;childLayout=stackLayout;horizontal=1;startSize=56.987214660644526;horizontalStack=0;resizeParent=1;resizeParentMax=0;resizeLast=0;collapsible=0;marginBottom=0;" vertex="1" parent="1">
          <mxGeometry x="1032" y="468" width="655" height="178.98721466064453" as="geometry" />
        </mxCell>
        <mxCell id="dJxrg4c0x5EPtcGyTOzi-29" style="line;strokeWidth=1;fillColor=none;align=left;verticalAlign=middle;spacingTop=-1;spacingLeft=3;spacingRight=3;rotatable=0;labelPosition=right;points=[];portConstraint=eastwest;strokeColor=inherit;" vertex="1" parent="dJxrg4c0x5EPtcGyTOzi-28">
          <mxGeometry y="56.987214660644526" width="655" height="8" as="geometry" />
        </mxCell>
        <mxCell id="dJxrg4c0x5EPtcGyTOzi-30" value="+registerListener(listener: GatewayController)" style="text;strokeColor=none;fillColor=none;align=left;verticalAlign=top;spacingLeft=4;spacingRight=4;overflow=hidden;rotatable=0;points=[[0,0.5],[1,0.5]];portConstraint=eastwest;" vertex="1" parent="dJxrg4c0x5EPtcGyTOzi-28">
          <mxGeometry y="64.98721466064453" width="655" height="38" as="geometry" />
        </mxCell>
        <mxCell id="dJxrg4c0x5EPtcGyTOzi-31" value="+unregisterListener(listener: GatewayController)" style="text;strokeColor=none;fillColor=none;align=left;verticalAlign=top;spacingLeft=4;spacingRight=4;overflow=hidden;rotatable=0;points=[[0,0.5],[1,0.5]];portConstraint=eastwest;" vertex="1" parent="dJxrg4c0x5EPtcGyTOzi-28">
          <mxGeometry y="102.98721466064453" width="655" height="38" as="geometry" />
        </mxCell>
        <mxCell id="dJxrg4c0x5EPtcGyTOzi-32" value="+notifyDeviceStatusChanged(deviceId: String, status: String, powerUsage: float)" style="text;strokeColor=none;fillColor=none;align=left;verticalAlign=top;spacingLeft=4;spacingRight=4;overflow=hidden;rotatable=0;points=[[0,0.5],[1,0.5]];portConstraint=eastwest;" vertex="1" parent="dJxrg4c0x5EPtcGyTOzi-28">
          <mxGeometry y="140.98721466064453" width="655" height="38" as="geometry" />
        </mxCell>
        <mxCell id="dJxrg4c0x5EPtcGyTOzi-33" value="&lt;&lt;interface&gt;&gt;&#xa;ILocalStorage" style="swimlane;fontStyle=1;align=center;verticalAlign=top;childLayout=stackLayout;horizontal=1;startSize=56.987214660644526;horizontalStack=0;resizeParent=1;resizeParentMax=0;resizeLast=0;collapsible=0;marginBottom=0;" vertex="1" parent="1">
          <mxGeometry x="1194" y="1671" width="330" height="178.98721466064453" as="geometry" />
        </mxCell>
        <mxCell id="dJxrg4c0x5EPtcGyTOzi-34" style="line;strokeWidth=1;fillColor=none;align=left;verticalAlign=middle;spacingTop=-1;spacingLeft=3;spacingRight=3;rotatable=0;labelPosition=right;points=[];portConstraint=eastwest;strokeColor=inherit;" vertex="1" parent="dJxrg4c0x5EPtcGyTOzi-33">
          <mxGeometry y="56.987214660644526" width="330" height="8" as="geometry" />
        </mxCell>
        <mxCell id="dJxrg4c0x5EPtcGyTOzi-35" value="+saveData(key: String, data: String)" style="text;strokeColor=none;fillColor=none;align=left;verticalAlign=top;spacingLeft=4;spacingRight=4;overflow=hidden;rotatable=0;points=[[0,0.5],[1,0.5]];portConstraint=eastwest;" vertex="1" parent="dJxrg4c0x5EPtcGyTOzi-33">
          <mxGeometry y="64.98721466064453" width="330" height="38" as="geometry" />
        </mxCell>
        <mxCell id="dJxrg4c0x5EPtcGyTOzi-36" value="+loadData(key: String)" style="text;strokeColor=none;fillColor=none;align=left;verticalAlign=top;spacingLeft=4;spacingRight=4;overflow=hidden;rotatable=0;points=[[0,0.5],[1,0.5]];portConstraint=eastwest;" vertex="1" parent="dJxrg4c0x5EPtcGyTOzi-33">
          <mxGeometry y="102.98721466064453" width="330" height="38" as="geometry" />
        </mxCell>
        <mxCell id="dJxrg4c0x5EPtcGyTOzi-37" value="+deleteData(key: String)" style="text;strokeColor=none;fillColor=none;align=left;verticalAlign=top;spacingLeft=4;spacingRight=4;overflow=hidden;rotatable=0;points=[[0,0.5],[1,0.5]];portConstraint=eastwest;" vertex="1" parent="dJxrg4c0x5EPtcGyTOzi-33">
          <mxGeometry y="140.98721466064453" width="330" height="38" as="geometry" />
        </mxCell>
        <mxCell id="dJxrg4c0x5EPtcGyTOzi-38" value="HomeAssistantDeviceAdapter" style="swimlane;fontStyle=1;align=center;verticalAlign=top;childLayout=stackLayout;horizontal=1;startSize=33.13433619907924;horizontalStack=0;resizeParent=1;resizeParentMax=0;resizeLast=0;collapsible=0;marginBottom=0;" vertex="1" parent="1">
          <mxGeometry x="268" y="1174" width="626" height="239.13433619907926" as="geometry" />
        </mxCell>
        <mxCell id="dJxrg4c0x5EPtcGyTOzi-39" value="-HomeAssistantAPI haAPI" style="text;strokeColor=none;fillColor=none;align=left;verticalAlign=top;spacingLeft=4;spacingRight=4;overflow=hidden;rotatable=0;points=[[0,0.5],[1,0.5]];portConstraint=eastwest;" vertex="1" parent="dJxrg4c0x5EPtcGyTOzi-38">
          <mxGeometry y="33.13433619907924" width="626" height="33" as="geometry" />
        </mxCell>
        <mxCell id="dJxrg4c0x5EPtcGyTOzi-40" value="-String entityIdMap[string] %% Maps internal deviceId to HA entity_id" style="text;strokeColor=none;fillColor=none;align=left;verticalAlign=top;spacingLeft=4;spacingRight=4;overflow=hidden;rotatable=0;points=[[0,0.5],[1,0.5]];portConstraint=eastwest;" vertex="1" parent="dJxrg4c0x5EPtcGyTOzi-38">
          <mxGeometry y="66.13433619907924" width="626" height="33" as="geometry" />
        </mxCell>
        <mxCell id="dJxrg4c0x5EPtcGyTOzi-41" style="line;strokeWidth=1;fillColor=none;align=left;verticalAlign=middle;spacingTop=-1;spacingLeft=3;spacingRight=3;rotatable=0;labelPosition=right;points=[];portConstraint=eastwest;strokeColor=inherit;" vertex="1" parent="dJxrg4c0x5EPtcGyTOzi-38">
          <mxGeometry y="99.13433619907924" width="626" height="8" as="geometry" />
        </mxCell>
        <mxCell id="dJxrg4c0x5EPtcGyTOzi-42" value="+turnOn(deviceId: String)" style="text;strokeColor=none;fillColor=none;align=left;verticalAlign=top;spacingLeft=4;spacingRight=4;overflow=hidden;rotatable=0;points=[[0,0.5],[1,0.5]];portConstraint=eastwest;" vertex="1" parent="dJxrg4c0x5EPtcGyTOzi-38">
          <mxGeometry y="107.13433619907924" width="626" height="33" as="geometry" />
        </mxCell>
        <mxCell id="dJxrg4c0x5EPtcGyTOzi-43" value="+turnOff(deviceId: String)" style="text;strokeColor=none;fillColor=none;align=left;verticalAlign=top;spacingLeft=4;spacingRight=4;overflow=hidden;rotatable=0;points=[[0,0.5],[1,0.5]];portConstraint=eastwest;" vertex="1" parent="dJxrg4c0x5EPtcGyTOzi-38">
          <mxGeometry y="140.13433619907926" width="626" height="33" as="geometry" />
        </mxCell>
        <mxCell id="dJxrg4c0x5EPtcGyTOzi-44" value="+getPowerUsage(deviceId: String) : : float" style="text;strokeColor=none;fillColor=none;align=left;verticalAlign=top;spacingLeft=4;spacingRight=4;overflow=hidden;rotatable=0;points=[[0,0.5],[1,0.5]];portConstraint=eastwest;" vertex="1" parent="dJxrg4c0x5EPtcGyTOzi-38">
          <mxGeometry y="173.13433619907926" width="626" height="33" as="geometry" />
        </mxCell>
        <mxCell id="dJxrg4c0x5EPtcGyTOzi-45" value="+getPowerState(deviceId: String) : : String" style="text;strokeColor=none;fillColor=none;align=left;verticalAlign=top;spacingLeft=4;spacingRight=4;overflow=hidden;rotatable=0;points=[[0,0.5],[1,0.5]];portConstraint=eastwest;" vertex="1" parent="dJxrg4c0x5EPtcGyTOzi-38">
          <mxGeometry y="206.13433619907926" width="626" height="33" as="geometry" />
        </mxCell>
        <mxCell id="dJxrg4c0x5EPtcGyTOzi-46" value="HomeAssistantAPI" style="swimlane;fontStyle=1;align=center;verticalAlign=top;childLayout=stackLayout;horizontal=1;startSize=40.56412615094866;horizontalStack=0;resizeParent=1;resizeParentMax=0;resizeLast=0;collapsible=0;marginBottom=0;" vertex="1" parent="1">
          <mxGeometry x="218" y="1032.44" width="608" height="130.56412615094865" as="geometry" />
        </mxCell>
        <mxCell id="dJxrg4c0x5EPtcGyTOzi-47" style="line;strokeWidth=1;fillColor=none;align=left;verticalAlign=middle;spacingTop=-1;spacingLeft=3;spacingRight=3;rotatable=0;labelPosition=right;points=[];portConstraint=eastwest;strokeColor=inherit;" vertex="1" parent="dJxrg4c0x5EPtcGyTOzi-46">
          <mxGeometry y="40.56412615094866" width="608" height="8" as="geometry" />
        </mxCell>
        <mxCell id="dJxrg4c0x5EPtcGyTOzi-48" value="+callService(domain: String, service: String, entityId: String, data: Map)" style="text;strokeColor=none;fillColor=none;align=left;verticalAlign=top;spacingLeft=4;spacingRight=4;overflow=hidden;rotatable=0;points=[[0,0.5],[1,0.5]];portConstraint=eastwest;" vertex="1" parent="dJxrg4c0x5EPtcGyTOzi-46">
          <mxGeometry y="48.56412615094866" width="608" height="41" as="geometry" />
        </mxCell>
        <mxCell id="dJxrg4c0x5EPtcGyTOzi-49" value="+getState(entityId: String) : : Map" style="text;strokeColor=none;fillColor=none;align=left;verticalAlign=top;spacingLeft=4;spacingRight=4;overflow=hidden;rotatable=0;points=[[0,0.5],[1,0.5]];portConstraint=eastwest;" vertex="1" parent="dJxrg4c0x5EPtcGyTOzi-46">
          <mxGeometry y="89.56412615094865" width="608" height="41" as="geometry" />
        </mxCell>
        <mxCell id="dJxrg4c0x5EPtcGyTOzi-50" value="&lt;&lt;interface&gt;&gt;&#xa;ICommandQueue" style="swimlane;fontStyle=1;align=center;verticalAlign=top;childLayout=stackLayout;horizontal=1;startSize=56.987214660644526;horizontalStack=0;resizeParent=1;resizeParentMax=0;resizeLast=0;collapsible=0;marginBottom=0;" vertex="1" parent="1">
          <mxGeometry x="1151" y="1423" width="416" height="178.98721466064453" as="geometry" />
        </mxCell>
        <mxCell id="dJxrg4c0x5EPtcGyTOzi-51" style="line;strokeWidth=1;fillColor=none;align=left;verticalAlign=middle;spacingTop=-1;spacingLeft=3;spacingRight=3;rotatable=0;labelPosition=right;points=[];portConstraint=eastwest;strokeColor=inherit;" vertex="1" parent="dJxrg4c0x5EPtcGyTOzi-50">
          <mxGeometry y="56.987214660644526" width="416" height="8" as="geometry" />
        </mxCell>
        <mxCell id="dJxrg4c0x5EPtcGyTOzi-52" value="+addCommand(command: ICommand) : : void" style="text;strokeColor=none;fillColor=none;align=left;verticalAlign=top;spacingLeft=4;spacingRight=4;overflow=hidden;rotatable=0;points=[[0,0.5],[1,0.5]];portConstraint=eastwest;" vertex="1" parent="dJxrg4c0x5EPtcGyTOzi-50">
          <mxGeometry y="64.98721466064453" width="416" height="38" as="geometry" />
        </mxCell>
        <mxCell id="dJxrg4c0x5EPtcGyTOzi-53" value="+pollCommand() : : ICommand" style="text;strokeColor=none;fillColor=none;align=left;verticalAlign=top;spacingLeft=4;spacingRight=4;overflow=hidden;rotatable=0;points=[[0,0.5],[1,0.5]];portConstraint=eastwest;" vertex="1" parent="dJxrg4c0x5EPtcGyTOzi-50">
          <mxGeometry y="102.98721466064453" width="416" height="38" as="geometry" />
        </mxCell>
        <mxCell id="dJxrg4c0x5EPtcGyTOzi-54" value="+isEmpty() : : boolean" style="text;strokeColor=none;fillColor=none;align=left;verticalAlign=top;spacingLeft=4;spacingRight=4;overflow=hidden;rotatable=0;points=[[0,0.5],[1,0.5]];portConstraint=eastwest;" vertex="1" parent="dJxrg4c0x5EPtcGyTOzi-50">
          <mxGeometry y="140.98721466064453" width="416" height="38" as="geometry" />
        </mxCell>
        <mxCell id="dJxrg4c0x5EPtcGyTOzi-55" value="PersistentCommandQueue" style="swimlane;fontStyle=1;align=center;verticalAlign=top;childLayout=stackLayout;horizontal=1;startSize=31.102586534288193;horizontalStack=0;resizeParent=1;resizeParentMax=0;resizeLast=0;collapsible=0;marginBottom=0;" vertex="1" parent="1">
          <mxGeometry x="356" y="1706" width="451" height="287.1025865342882" as="geometry" />
        </mxCell>
        <mxCell id="dJxrg4c0x5EPtcGyTOzi-56" value="-ILocalStorage localStorage" style="text;strokeColor=none;fillColor=none;align=left;verticalAlign=top;spacingLeft=4;spacingRight=4;overflow=hidden;rotatable=0;points=[[0,0.5],[1,0.5]];portConstraint=eastwest;" vertex="1" parent="dJxrg4c0x5EPtcGyTOzi-55">
          <mxGeometry y="31.102586534288193" width="451" height="31" as="geometry" />
        </mxCell>
        <mxCell id="dJxrg4c0x5EPtcGyTOzi-57" value="-Queue internalQueue" style="text;strokeColor=none;fillColor=none;align=left;verticalAlign=top;spacingLeft=4;spacingRight=4;overflow=hidden;rotatable=0;points=[[0,0.5],[1,0.5]];portConstraint=eastwest;" vertex="1" parent="dJxrg4c0x5EPtcGyTOzi-55">
          <mxGeometry y="62.10258653428819" width="451" height="31" as="geometry" />
        </mxCell>
        <mxCell id="dJxrg4c0x5EPtcGyTOzi-58" value="-String storageKey" style="text;strokeColor=none;fillColor=none;align=left;verticalAlign=top;spacingLeft=4;spacingRight=4;overflow=hidden;rotatable=0;points=[[0,0.5],[1,0.5]];portConstraint=eastwest;" vertex="1" parent="dJxrg4c0x5EPtcGyTOzi-55">
          <mxGeometry y="93.10258653428819" width="451" height="31" as="geometry" />
        </mxCell>
        <mxCell id="dJxrg4c0x5EPtcGyTOzi-59" style="line;strokeWidth=1;fillColor=none;align=left;verticalAlign=middle;spacingTop=-1;spacingLeft=3;spacingRight=3;rotatable=0;labelPosition=right;points=[];portConstraint=eastwest;strokeColor=inherit;" vertex="1" parent="dJxrg4c0x5EPtcGyTOzi-55">
          <mxGeometry y="124.10258653428819" width="451" height="8" as="geometry" />
        </mxCell>
        <mxCell id="dJxrg4c0x5EPtcGyTOzi-60" value="+addCommand(command: ICommand) : : void" style="text;strokeColor=none;fillColor=none;align=left;verticalAlign=top;spacingLeft=4;spacingRight=4;overflow=hidden;rotatable=0;points=[[0,0.5],[1,0.5]];portConstraint=eastwest;" vertex="1" parent="dJxrg4c0x5EPtcGyTOzi-55">
          <mxGeometry y="132.1025865342882" width="451" height="31" as="geometry" />
        </mxCell>
        <mxCell id="dJxrg4c0x5EPtcGyTOzi-61" value="+pollCommand() : : ICommand" style="text;strokeColor=none;fillColor=none;align=left;verticalAlign=top;spacingLeft=4;spacingRight=4;overflow=hidden;rotatable=0;points=[[0,0.5],[1,0.5]];portConstraint=eastwest;" vertex="1" parent="dJxrg4c0x5EPtcGyTOzi-55">
          <mxGeometry y="163.1025865342882" width="451" height="31" as="geometry" />
        </mxCell>
        <mxCell id="dJxrg4c0x5EPtcGyTOzi-62" value="+isEmpty() : : boolean" style="text;strokeColor=none;fillColor=none;align=left;verticalAlign=top;spacingLeft=4;spacingRight=4;overflow=hidden;rotatable=0;points=[[0,0.5],[1,0.5]];portConstraint=eastwest;" vertex="1" parent="dJxrg4c0x5EPtcGyTOzi-55">
          <mxGeometry y="194.1025865342882" width="451" height="31" as="geometry" />
        </mxCell>
        <mxCell id="dJxrg4c0x5EPtcGyTOzi-63" value="-saveQueue() : : void" style="text;strokeColor=none;fillColor=none;align=left;verticalAlign=top;spacingLeft=4;spacingRight=4;overflow=hidden;rotatable=0;points=[[0,0.5],[1,0.5]];portConstraint=eastwest;" vertex="1" parent="dJxrg4c0x5EPtcGyTOzi-55">
          <mxGeometry y="225.1025865342882" width="451" height="31" as="geometry" />
        </mxCell>
        <mxCell id="dJxrg4c0x5EPtcGyTOzi-64" value="-loadQueue() : : void" style="text;strokeColor=none;fillColor=none;align=left;verticalAlign=top;spacingLeft=4;spacingRight=4;overflow=hidden;rotatable=0;points=[[0,0.5],[1,0.5]];portConstraint=eastwest;" vertex="1" parent="dJxrg4c0x5EPtcGyTOzi-55">
          <mxGeometry y="256.1025865342882" width="451" height="31" as="geometry" />
        </mxCell>
        <mxCell id="dJxrg4c0x5EPtcGyTOzi-65" value="&lt;&lt;interface&gt;&gt;&#xa;ICommand" style="swimlane;fontStyle=1;align=center;verticalAlign=top;childLayout=stackLayout;horizontal=1;startSize=56.987214660644526;horizontalStack=0;resizeParent=1;resizeParentMax=0;resizeLast=0;collapsible=0;marginBottom=0;" vertex="1" parent="1">
          <mxGeometry x="1913" y="1423" width="399" height="178.98721466064453" as="geometry" />
        </mxCell>
        <mxCell id="dJxrg4c0x5EPtcGyTOzi-66" style="line;strokeWidth=1;fillColor=none;align=left;verticalAlign=middle;spacingTop=-1;spacingLeft=3;spacingRight=3;rotatable=0;labelPosition=right;points=[];portConstraint=eastwest;strokeColor=inherit;" vertex="1" parent="dJxrg4c0x5EPtcGyTOzi-65">
          <mxGeometry y="56.987214660644526" width="399" height="8" as="geometry" />
        </mxCell>
        <mxCell id="dJxrg4c0x5EPtcGyTOzi-67" value="+execute(context: GatewayController) : : void" style="text;strokeColor=none;fillColor=none;align=left;verticalAlign=top;spacingLeft=4;spacingRight=4;overflow=hidden;rotatable=0;points=[[0,0.5],[1,0.5]];portConstraint=eastwest;" vertex="1" parent="dJxrg4c0x5EPtcGyTOzi-65">
          <mxGeometry y="64.98721466064453" width="399" height="38" as="geometry" />
        </mxCell>
        <mxCell id="dJxrg4c0x5EPtcGyTOzi-68" value="+serialize() : : String" style="text;strokeColor=none;fillColor=none;align=left;verticalAlign=top;spacingLeft=4;spacingRight=4;overflow=hidden;rotatable=0;points=[[0,0.5],[1,0.5]];portConstraint=eastwest;" vertex="1" parent="dJxrg4c0x5EPtcGyTOzi-65">
          <mxGeometry y="102.98721466064453" width="399" height="38" as="geometry" />
        </mxCell>
        <mxCell id="dJxrg4c0x5EPtcGyTOzi-69" value="+deserialize(data: String) : : ICommand" style="text;strokeColor=none;fillColor=none;align=left;verticalAlign=top;spacingLeft=4;spacingRight=4;overflow=hidden;rotatable=0;points=[[0,0.5],[1,0.5]];portConstraint=eastwest;" vertex="1" parent="dJxrg4c0x5EPtcGyTOzi-65">
          <mxGeometry y="140.98721466064453" width="399" height="38" as="geometry" />
        </mxCell>
        <mxCell id="dJxrg4c0x5EPtcGyTOzi-70" value="DeviceControlCommand" style="swimlane;fontStyle=1;align=center;verticalAlign=top;childLayout=stackLayout;horizontal=1;startSize=34.65814463297526;horizontalStack=0;resizeParent=1;resizeParentMax=0;resizeLast=0;collapsible=0;marginBottom=0;" vertex="1" parent="1">
          <mxGeometry x="2449" y="920" width="447" height="217.65814463297525" as="geometry" />
        </mxCell>
        <mxCell id="dJxrg4c0x5EPtcGyTOzi-71" value="-String deviceId" style="text;strokeColor=none;fillColor=none;align=left;verticalAlign=top;spacingLeft=4;spacingRight=4;overflow=hidden;rotatable=0;points=[[0,0.5],[1,0.5]];portConstraint=eastwest;" vertex="1" parent="dJxrg4c0x5EPtcGyTOzi-70">
          <mxGeometry y="34.65814463297526" width="447" height="35" as="geometry" />
        </mxCell>
        <mxCell id="dJxrg4c0x5EPtcGyTOzi-72" value="-String action %% &quot;turn_on&quot;, &quot;turn_off&quot;" style="text;strokeColor=none;fillColor=none;align=left;verticalAlign=top;spacingLeft=4;spacingRight=4;overflow=hidden;rotatable=0;points=[[0,0.5],[1,0.5]];portConstraint=eastwest;" vertex="1" parent="dJxrg4c0x5EPtcGyTOzi-70">
          <mxGeometry y="69.65814463297525" width="447" height="35" as="geometry" />
        </mxCell>
        <mxCell id="dJxrg4c0x5EPtcGyTOzi-73" style="line;strokeWidth=1;fillColor=none;align=left;verticalAlign=middle;spacingTop=-1;spacingLeft=3;spacingRight=3;rotatable=0;labelPosition=right;points=[];portConstraint=eastwest;strokeColor=inherit;" vertex="1" parent="dJxrg4c0x5EPtcGyTOzi-70">
          <mxGeometry y="104.65814463297525" width="447" height="8" as="geometry" />
        </mxCell>
        <mxCell id="dJxrg4c0x5EPtcGyTOzi-74" value="+execute(context: GatewayController) : : void" style="text;strokeColor=none;fillColor=none;align=left;verticalAlign=top;spacingLeft=4;spacingRight=4;overflow=hidden;rotatable=0;points=[[0,0.5],[1,0.5]];portConstraint=eastwest;" vertex="1" parent="dJxrg4c0x5EPtcGyTOzi-70">
          <mxGeometry y="112.65814463297525" width="447" height="35" as="geometry" />
        </mxCell>
        <mxCell id="dJxrg4c0x5EPtcGyTOzi-75" value="+serialize() : : String" style="text;strokeColor=none;fillColor=none;align=left;verticalAlign=top;spacingLeft=4;spacingRight=4;overflow=hidden;rotatable=0;points=[[0,0.5],[1,0.5]];portConstraint=eastwest;" vertex="1" parent="dJxrg4c0x5EPtcGyTOzi-70">
          <mxGeometry y="147.65814463297525" width="447" height="35" as="geometry" />
        </mxCell>
        <mxCell id="dJxrg4c0x5EPtcGyTOzi-76" value="+deserialize(data: String) : : ICommand" style="text;strokeColor=none;fillColor=none;align=left;verticalAlign=top;spacingLeft=4;spacingRight=4;overflow=hidden;rotatable=0;points=[[0,0.5],[1,0.5]];portConstraint=eastwest;" vertex="1" parent="dJxrg4c0x5EPtcGyTOzi-70">
          <mxGeometry y="182.65814463297525" width="447" height="35" as="geometry" />
        </mxCell>
        <mxCell id="dJxrg4c0x5EPtcGyTOzi-77" value="ReportStatusCommand" style="swimlane;fontStyle=1;align=center;verticalAlign=top;childLayout=stackLayout;horizontal=1;startSize=33.13433183942522;horizontalStack=0;resizeParent=1;resizeParentMax=0;resizeLast=0;collapsible=0;marginBottom=0;" vertex="1" parent="1">
          <mxGeometry x="2452" y="1186" width="443" height="239.13433183942522" as="geometry" />
        </mxCell>
        <mxCell id="dJxrg4c0x5EPtcGyTOzi-78" value="-String deviceId" style="text;strokeColor=none;fillColor=none;align=left;verticalAlign=top;spacingLeft=4;spacingRight=4;overflow=hidden;rotatable=0;points=[[0,0.5],[1,0.5]];portConstraint=eastwest;" vertex="1" parent="dJxrg4c0x5EPtcGyTOzi-77">
          <mxGeometry y="33.13433183942522" width="443" height="33" as="geometry" />
        </mxCell>
        <mxCell id="dJxrg4c0x5EPtcGyTOzi-79" value="-String status" style="text;strokeColor=none;fillColor=none;align=left;verticalAlign=top;spacingLeft=4;spacingRight=4;overflow=hidden;rotatable=0;points=[[0,0.5],[1,0.5]];portConstraint=eastwest;" vertex="1" parent="dJxrg4c0x5EPtcGyTOzi-77">
          <mxGeometry y="66.13433183942522" width="443" height="33" as="geometry" />
        </mxCell>
        <mxCell id="dJxrg4c0x5EPtcGyTOzi-80" value="-float powerUsage" style="text;strokeColor=none;fillColor=none;align=left;verticalAlign=top;spacingLeft=4;spacingRight=4;overflow=hidden;rotatable=0;points=[[0,0.5],[1,0.5]];portConstraint=eastwest;" vertex="1" parent="dJxrg4c0x5EPtcGyTOzi-77">
          <mxGeometry y="99.13433183942522" width="443" height="33" as="geometry" />
        </mxCell>
        <mxCell id="dJxrg4c0x5EPtcGyTOzi-81" style="line;strokeWidth=1;fillColor=none;align=left;verticalAlign=middle;spacingTop=-1;spacingLeft=3;spacingRight=3;rotatable=0;labelPosition=right;points=[];portConstraint=eastwest;strokeColor=inherit;" vertex="1" parent="dJxrg4c0x5EPtcGyTOzi-77">
          <mxGeometry y="132.13433183942522" width="443" height="8" as="geometry" />
        </mxCell>
        <mxCell id="dJxrg4c0x5EPtcGyTOzi-82" value="+execute(context: GatewayController) : : void" style="text;strokeColor=none;fillColor=none;align=left;verticalAlign=top;spacingLeft=4;spacingRight=4;overflow=hidden;rotatable=0;points=[[0,0.5],[1,0.5]];portConstraint=eastwest;" vertex="1" parent="dJxrg4c0x5EPtcGyTOzi-77">
          <mxGeometry y="140.13433183942522" width="443" height="33" as="geometry" />
        </mxCell>
        <mxCell id="dJxrg4c0x5EPtcGyTOzi-83" value="+serialize() : : String" style="text;strokeColor=none;fillColor=none;align=left;verticalAlign=top;spacingLeft=4;spacingRight=4;overflow=hidden;rotatable=0;points=[[0,0.5],[1,0.5]];portConstraint=eastwest;" vertex="1" parent="dJxrg4c0x5EPtcGyTOzi-77">
          <mxGeometry y="173.13433183942522" width="443" height="33" as="geometry" />
        </mxCell>
        <mxCell id="dJxrg4c0x5EPtcGyTOzi-84" value="+deserialize(data: String) : : ICommand" style="text;strokeColor=none;fillColor=none;align=left;verticalAlign=top;spacingLeft=4;spacingRight=4;overflow=hidden;rotatable=0;points=[[0,0.5],[1,0.5]];portConstraint=eastwest;" vertex="1" parent="dJxrg4c0x5EPtcGyTOzi-77">
          <mxGeometry y="206.13433183942522" width="443" height="33" as="geometry" />
        </mxCell>
        <mxCell id="dJxrg4c0x5EPtcGyTOzi-85" value="FilePersistentStorage" style="swimlane;fontStyle=1;align=center;verticalAlign=top;childLayout=stackLayout;horizontal=1;startSize=36.79147644042969;horizontalStack=0;resizeParent=1;resizeParentMax=0;resizeLast=0;collapsible=0;marginBottom=0;" vertex="1" parent="1">
          <mxGeometry x="373" y="1464" width="416" height="192.79147644042968" as="geometry" />
        </mxCell>
        <mxCell id="dJxrg4c0x5EPtcGyTOzi-86" value="-String filePath" style="text;strokeColor=none;fillColor=none;align=left;verticalAlign=top;spacingLeft=4;spacingRight=4;overflow=hidden;rotatable=0;points=[[0,0.5],[1,0.5]];portConstraint=eastwest;" vertex="1" parent="dJxrg4c0x5EPtcGyTOzi-85">
          <mxGeometry y="36.79147644042969" width="416" height="37" as="geometry" />
        </mxCell>
        <mxCell id="dJxrg4c0x5EPtcGyTOzi-87" style="line;strokeWidth=1;fillColor=none;align=left;verticalAlign=middle;spacingTop=-1;spacingLeft=3;spacingRight=3;rotatable=0;labelPosition=right;points=[];portConstraint=eastwest;strokeColor=inherit;" vertex="1" parent="dJxrg4c0x5EPtcGyTOzi-85">
          <mxGeometry y="73.79147644042969" width="416" height="8" as="geometry" />
        </mxCell>
        <mxCell id="dJxrg4c0x5EPtcGyTOzi-88" value="+saveData(key: String, data: String) : : void" style="text;strokeColor=none;fillColor=none;align=left;verticalAlign=top;spacingLeft=4;spacingRight=4;overflow=hidden;rotatable=0;points=[[0,0.5],[1,0.5]];portConstraint=eastwest;" vertex="1" parent="dJxrg4c0x5EPtcGyTOzi-85">
          <mxGeometry y="81.79147644042969" width="416" height="37" as="geometry" />
        </mxCell>
        <mxCell id="dJxrg4c0x5EPtcGyTOzi-89" value="+loadData(key: String) : : String" style="text;strokeColor=none;fillColor=none;align=left;verticalAlign=top;spacingLeft=4;spacingRight=4;overflow=hidden;rotatable=0;points=[[0,0.5],[1,0.5]];portConstraint=eastwest;" vertex="1" parent="dJxrg4c0x5EPtcGyTOzi-85">
          <mxGeometry y="118.79147644042969" width="416" height="37" as="geometry" />
        </mxCell>
        <mxCell id="dJxrg4c0x5EPtcGyTOzi-90" value="+deleteData(key: String) : : void" style="text;strokeColor=none;fillColor=none;align=left;verticalAlign=top;spacingLeft=4;spacingRight=4;overflow=hidden;rotatable=0;points=[[0,0.5],[1,0.5]];portConstraint=eastwest;" vertex="1" parent="dJxrg4c0x5EPtcGyTOzi-85">
          <mxGeometry y="155.79147644042968" width="416" height="37" as="geometry" />
        </mxCell>
        <mxCell id="dJxrg4c0x5EPtcGyTOzi-91" value="Concrete Adapter" style="align=left;spacingLeft=4;" vertex="1" parent="1">
          <mxGeometry x="50" y="1276" width="138" height="36" as="geometry" />
        </mxCell>
        <mxCell id="dJxrg4c0x5EPtcGyTOzi-92" value="Adaptee (Concrete HA Library Interface)" style="align=left;spacingLeft=4;" vertex="1" parent="1">
          <mxGeometry x="40" y="1199" width="302" height="36" as="geometry" />
        </mxCell>
        <mxCell id="dJxrg4c0x5EPtcGyTOzi-93" value="Concrete CommandQueue" style="align=left;spacingLeft=4;" vertex="1" parent="1">
          <mxGeometry x="20" y="1832" width="198" height="36" as="geometry" />
        </mxCell>
        <mxCell id="dJxrg4c0x5EPtcGyTOzi-94" value="Concrete Command" style="align=left;spacingLeft=4;" vertex="1" parent="1">
          <mxGeometry x="2036" y="1008" width="152" height="36" as="geometry" />
        </mxCell>
        <mxCell id="dJxrg4c0x5EPtcGyTOzi-95" value="Concrete Command" style="align=left;spacingLeft=4;" vertex="1" parent="1">
          <mxGeometry x="2036" y="1163" width="152" height="36" as="geometry" />
        </mxCell>
        <mxCell id="dJxrg4c0x5EPtcGyTOzi-96" value="Concrete Storage" style="align=left;spacingLeft=4;" vertex="1" parent="1">
          <mxGeometry x="51" y="1542" width="136" height="36" as="geometry" />
        </mxCell>
        <mxCell id="dJxrg4c0x5EPtcGyTOzi-97" value="" style="curved=1;dashed=1;dashPattern=2 3;startArrow=none;endArrow=none;exitX=1;exitY=0.5;entryX=0;entryY=0.5;rounded=0;" edge="1" parent="1" source="dJxrg4c0x5EPtcGyTOzi-91" target="dJxrg4c0x5EPtcGyTOzi-38">
          <mxGeometry relative="1" as="geometry">
            <Array as="points" />
          </mxGeometry>
        </mxCell>
        <mxCell id="dJxrg4c0x5EPtcGyTOzi-98" value="" style="curved=1;dashed=1;dashPattern=2 3;startArrow=none;endArrow=none;exitX=1;exitY=0.49;entryX=0.21;entryY=1;rounded=0;" edge="1" parent="1" source="dJxrg4c0x5EPtcGyTOzi-92" target="dJxrg4c0x5EPtcGyTOzi-46">
          <mxGeometry relative="1" as="geometry">
            <Array as="points">
              <mxPoint x="963" y="2192" />
            </Array>
          </mxGeometry>
        </mxCell>
        <mxCell id="dJxrg4c0x5EPtcGyTOzi-99" value="" style="curved=1;dashed=1;dashPattern=2 3;startArrow=none;endArrow=none;exitX=1;exitY=0.5;entryX=0;entryY=0.5;rounded=0;" edge="1" parent="1" source="dJxrg4c0x5EPtcGyTOzi-93" target="dJxrg4c0x5EPtcGyTOzi-55">
          <mxGeometry relative="1" as="geometry">
            <Array as="points" />
          </mxGeometry>
        </mxCell>
        <mxCell id="dJxrg4c0x5EPtcGyTOzi-100" value="" style="curved=1;dashed=1;dashPattern=2 3;startArrow=none;endArrow=none;exitX=1;exitY=0.5;entryX=0;entryY=0.49;rounded=0;" edge="1" parent="1" source="dJxrg4c0x5EPtcGyTOzi-94" target="dJxrg4c0x5EPtcGyTOzi-70">
          <mxGeometry relative="1" as="geometry">
            <Array as="points">
              <mxPoint x="2380" y="1026" />
            </Array>
          </mxGeometry>
        </mxCell>
        <mxCell id="dJxrg4c0x5EPtcGyTOzi-101" value="" style="curved=1;dashed=1;dashPattern=2 3;startArrow=none;endArrow=none;exitX=1;exitY=0.51;entryX=0;entryY=0.11;rounded=0;" edge="1" parent="1" source="dJxrg4c0x5EPtcGyTOzi-95" target="dJxrg4c0x5EPtcGyTOzi-77">
          <mxGeometry relative="1" as="geometry">
            <Array as="points">
              <mxPoint x="2380" y="1181" />
            </Array>
          </mxGeometry>
        </mxCell>
        <mxCell id="dJxrg4c0x5EPtcGyTOzi-102" value="" style="curved=1;dashed=1;dashPattern=2 3;startArrow=none;endArrow=none;exitX=1;exitY=0.5;entryX=0;entryY=0.5;rounded=0;" edge="1" parent="1" source="dJxrg4c0x5EPtcGyTOzi-96" target="dJxrg4c0x5EPtcGyTOzi-85">
          <mxGeometry relative="1" as="geometry">
            <Array as="points" />
          </mxGeometry>
        </mxCell>
        <mxCell id="dJxrg4c0x5EPtcGyTOzi-103" value="implements" style="curved=1;startArrow=none;endArrow=block;endSize=16;endFill=0;exitX=0.7;exitY=0;entryX=0;entryY=0.5;rounded=0;" edge="1" parent="1" source="dJxrg4c0x5EPtcGyTOzi-1" target="dJxrg4c0x5EPtcGyTOzi-14">
          <mxGeometry relative="1" as="geometry">
            <Array as="points">
              <mxPoint x="963" y="95" />
            </Array>
          </mxGeometry>
        </mxCell>
        <mxCell id="dJxrg4c0x5EPtcGyTOzi-104" value="uses" style="curved=1;startArrow=none;endArrow=diamondThin;endSize=14;endFill=0;exitX=0.81;exitY=0;entryX=0.27;entryY=0;rounded=0;" edge="1" parent="1" source="dJxrg4c0x5EPtcGyTOzi-1" target="dJxrg4c0x5EPtcGyTOzi-17">
          <mxGeometry relative="1" as="geometry">
            <Array as="points">
              <mxPoint x="963" y="322" />
            </Array>
          </mxGeometry>
        </mxCell>
        <mxCell id="dJxrg4c0x5EPtcGyTOzi-105" value="uses" style="curved=1;startArrow=none;endArrow=diamondThin;endSize=14;endFill=0;exitX=0.84;exitY=0;entryX=0;entryY=0.6;rounded=0;" edge="1" parent="1" source="dJxrg4c0x5EPtcGyTOzi-1" target="dJxrg4c0x5EPtcGyTOzi-23">
          <mxGeometry relative="1" as="geometry">
            <Array as="points">
              <mxPoint x="963" y="365" />
            </Array>
          </mxGeometry>
        </mxCell>
        <mxCell id="dJxrg4c0x5EPtcGyTOzi-106" value="uses" style="curved=1;startArrow=none;endArrow=diamondThin;endSize=14;endFill=0;exitX=1;exitY=0.14;entryX=0;entryY=0.5;rounded=0;" edge="1" parent="1" source="dJxrg4c0x5EPtcGyTOzi-1" target="dJxrg4c0x5EPtcGyTOzi-28">
          <mxGeometry relative="1" as="geometry">
            <Array as="points">
              <mxPoint x="963" y="567" />
            </Array>
          </mxGeometry>
        </mxCell>
        <mxCell id="dJxrg4c0x5EPtcGyTOzi-107" value="uses" style="curved=1;startArrow=none;endArrow=diamondThin;endSize=14;endFill=0;exitX=1;exitY=0.5;entryX=0.38;entryY=0;rounded=0;" edge="1" parent="1" source="dJxrg4c0x5EPtcGyTOzi-1" target="dJxrg4c0x5EPtcGyTOzi-33">
          <mxGeometry relative="1" as="geometry">
            <Array as="points">
              <mxPoint x="963" y="754" />
            </Array>
          </mxGeometry>
        </mxCell>
        <mxCell id="dJxrg4c0x5EPtcGyTOzi-108" value="uses" style="curved=1;startArrow=none;endArrow=diamondThin;endSize=14;endFill=0;exitX=1;exitY=0.58;entryX=0.37;entryY=0;rounded=0;" edge="1" parent="1" source="dJxrg4c0x5EPtcGyTOzi-1" target="dJxrg4c0x5EPtcGyTOzi-50">
          <mxGeometry relative="1" as="geometry">
            <Array as="points">
              <mxPoint x="963" y="797" />
            </Array>
          </mxGeometry>
        </mxCell>
        <mxCell id="dJxrg4c0x5EPtcGyTOzi-109" value="implements" style="curved=1;startArrow=none;endArrow=block;endSize=16;endFill=0;exitX=1;exitY=0.4;entryX=0.24;entryY=1;rounded=0;" edge="1" parent="1" source="dJxrg4c0x5EPtcGyTOzi-38" target="dJxrg4c0x5EPtcGyTOzi-17">
          <mxGeometry relative="1" as="geometry">
            <Array as="points">
              <mxPoint x="963" y="1266" />
            </Array>
          </mxGeometry>
        </mxCell>
        <mxCell id="dJxrg4c0x5EPtcGyTOzi-110" value="adapts" style="curved=1;startArrow=none;endArrow=diamondThin;endSize=14;endFill=0;exitX=1;exitY=0.88;entryX=0.42;entryY=0;rounded=0;" edge="1" parent="1" source="dJxrg4c0x5EPtcGyTOzi-38" target="dJxrg4c0x5EPtcGyTOzi-46">
          <mxGeometry relative="1" as="geometry">
            <Array as="points">
              <mxPoint x="963" y="1405" />
            </Array>
          </mxGeometry>
        </mxCell>
        <mxCell id="dJxrg4c0x5EPtcGyTOzi-111" value="implements" style="curved=1;startArrow=none;endArrow=block;endSize=16;endFill=0;exitX=1;exitY=0.25;entryX=0.04;entryY=1;rounded=0;" edge="1" parent="1" source="dJxrg4c0x5EPtcGyTOzi-55" target="dJxrg4c0x5EPtcGyTOzi-50">
          <mxGeometry relative="1" as="geometry">
            <Array as="points">
              <mxPoint x="963" y="1726" />
            </Array>
          </mxGeometry>
        </mxCell>
        <mxCell id="dJxrg4c0x5EPtcGyTOzi-112" value="aggregates" style="curved=1;startArrow=none;endArrow=diamondThin;endSize=14;endFill=0;exitX=1;exitY=0.95;entryX=0.1;entryY=1;rounded=0;" edge="1" parent="1" source="dJxrg4c0x5EPtcGyTOzi-55" target="dJxrg4c0x5EPtcGyTOzi-33">
          <mxGeometry relative="1" as="geometry">
            <Array as="points">
              <mxPoint x="963" y="2070" />
            </Array>
          </mxGeometry>
        </mxCell>
        <mxCell id="dJxrg4c0x5EPtcGyTOzi-113" value="contains (0..*)" style="curved=1;startArrow=none;endArrow=diamondThin;endSize=14;endFill=0;exitX=1;exitY=0.5;entryX=0;entryY=0.5;rounded=0;" edge="1" parent="1" source="dJxrg4c0x5EPtcGyTOzi-50" target="dJxrg4c0x5EPtcGyTOzi-65">
          <mxGeometry relative="1" as="geometry">
            <Array as="points" />
          </mxGeometry>
        </mxCell>
        <mxCell id="dJxrg4c0x5EPtcGyTOzi-114" value="implements" style="curved=1;dashed=1;startArrow=block;startSize=16;startFill=0;endArrow=none;exitX=0.88;exitY=0;entryX=0.28;entryY=1;rounded=0;" edge="1" parent="1" source="dJxrg4c0x5EPtcGyTOzi-65" target="dJxrg4c0x5EPtcGyTOzi-70">
          <mxGeometry relative="1" as="geometry">
            <Array as="points">
              <mxPoint x="2380" y="1346" />
            </Array>
          </mxGeometry>
        </mxCell>
        <mxCell id="dJxrg4c0x5EPtcGyTOzi-115" value="implements" style="curved=1;dashed=1;startArrow=block;startSize=16;startFill=0;endArrow=none;exitX=1;exitY=0.58;entryX=0.17;entryY=1;rounded=0;" edge="1" parent="1" source="dJxrg4c0x5EPtcGyTOzi-65" target="dJxrg4c0x5EPtcGyTOzi-77">
          <mxGeometry relative="1" as="geometry">
            <Array as="points">
              <mxPoint x="2380" y="1544" />
            </Array>
          </mxGeometry>
        </mxCell>
        <mxCell id="dJxrg4c0x5EPtcGyTOzi-116" value="implements" style="curved=1;startArrow=none;endArrow=block;endSize=16;endFill=0;exitX=1;exitY=0.5;entryX=0;entryY=0.06;rounded=0;" edge="1" parent="1" source="dJxrg4c0x5EPtcGyTOzi-85" target="dJxrg4c0x5EPtcGyTOzi-33">
          <mxGeometry relative="1" as="geometry">
            <Array as="points">
              <mxPoint x="963" y="1560" />
            </Array>
          </mxGeometry>
        </mxCell>
        <mxCell id="dJxrg4c0x5EPtcGyTOzi-117" value="depends (for execution)" style="curved=1;dashed=1;startArrow=none;endArrow=open;endSize=12;exitX=0;exitY=0.31;entryX=1;entryY=0.91;rounded=0;" edge="1" parent="1" source="dJxrg4c0x5EPtcGyTOzi-70" target="dJxrg4c0x5EPtcGyTOzi-1">
          <mxGeometry relative="1" as="geometry">
            <Array as="points">
              <mxPoint x="2380" y="973" />
              <mxPoint x="963" y="973" />
            </Array>
          </mxGeometry>
        </mxCell>
        <mxCell id="dJxrg4c0x5EPtcGyTOzi-118" value="depends (for execution)" style="curved=1;dashed=1;startArrow=none;endArrow=open;endSize=12;exitX=0;exitY=0.27;entryX=0.78;entryY=1;rounded=0;" edge="1" parent="1" source="dJxrg4c0x5EPtcGyTOzi-77" target="dJxrg4c0x5EPtcGyTOzi-1">
          <mxGeometry relative="1" as="geometry">
            <Array as="points">
              <mxPoint x="2380" y="1234" />
              <mxPoint x="963" y="1234" />
            </Array>
          </mxGeometry>
        </mxCell>
      </root>
    </mxGraphModel>
  </diagram>
</mxfile>
